<?xml version="1.0" encoding="UTF-8" standalone="no"?>
<!DOCTYPE svg PUBLIC "-//W3C//DTD SVG 1.1//EN" "http://www.w3.org/Graphics/SVG/1.1/DTD/svg11.dtd">
<svg width="100%" viewBox="0 0 368 198" version="1.1" xmlns="http://www.w3.org/2000/svg" xmlns:xlink="http://www.w3.org/1999/xlink" xml:space="preserve" xmlns:serif="http://www.serif.com/" style="fill-rule:evenodd;clip-rule:evenodd;stroke-linejoin:round;stroke-miterlimit:1.41421;">
    <g transform="matrix(1,0,0,1,-66.0592,-85.75)">
        <g transform="matrix(1.1716,0,0,1.1716,-134.284,-65.3861)">
            <rect x="171" y="129" width="314" height="169" style="fill:url(#_Linear1);"/>
        </g>
        <g id="Graphics" transform="matrix(1,0,0,1,-80.7162,-28.1928)">
            <g transform="matrix(1,0,0,1,295.204,209.16)">
                <path d="M0,64.378L-102.425,64.378L-102.425,1.25C-102.425,0.559 -101.865,0 -101.175,0L-1.25,0C-0.56,0 0,0.559 0,1.25L0,64.378Z" style="fill:rgb(86,64,139);fill-rule:nonzero;"/>
            </g>
            <g transform="matrix(-1,-0,-0,1,487.983,113.783)">
                <rect x="198.031" y="101.168" width="91.921" height="53.381" style="fill:white;"/>
            </g>
            <g transform="matrix(1,0,0,1,301.172,281.478)">
                <path d="M0,-5.06L-114.363,-5.06C-111.102,-1.819 -106.692,0 -102.096,0L-12.267,0C-7.67,0 -3.26,-1.819 0,-5.06" style="fill:rgb(237,239,241);fill-rule:nonzero;"/>
            </g>
            <g transform="matrix(-1,-0,-0,1,487.981,180.12)">
                <rect x="186.809" y="93.082" width="114.363" height="3.216" style="fill:white;"/>
            </g>
            <g transform="matrix(1,0,0,1,251.069,273.935)">
                <path d="M0,1.75L-14.157,1.75C-14.637,1.75 -15.031,1.356 -15.031,0.875C-15.031,0.394 -14.637,0 -14.157,0L0,0C0.481,0 0.875,0.394 0.875,0.875C0.875,1.356 0.481,1.75 0,1.75" style="fill:rgb(222,225,231);fill-rule:nonzero;"/>
            </g>
            <g transform="matrix(0,-1,-1,-0,211.751,263.26)">
                <path d="M-5.073,13.72L10.583,13.72L13.72,5.073L-5.073,5.073L-5.073,13.72Z" style="fill:rgb(93,218,244);fill-rule:nonzero;"/>
            </g>
            <g transform="matrix(0,-1,-1,-0,221.197,262.462)">
                <path d="M-5.871,14.519L12.922,14.519L14.519,5.871L-5.871,5.871L-5.871,14.519Z" style="fill:rgb(125,225,246);fill-rule:nonzero;"/>
            </g>
            <g transform="matrix(0,-1,-1,-0,241.545,259.409)">
                <path d="M-8.924,17.571L15.497,17.571L17.571,8.923L-8.924,8.923L-8.924,17.571Z" style="fill:rgb(125,225,246);fill-rule:nonzero;"/>
            </g>
            <g transform="matrix(0,-1,-1,-0,262.684,255.565)">
                <path d="M-12.767,21.415L21.415,21.415L19.38,12.767L-12.767,12.767L-12.767,21.415Z" style="fill:rgb(125,225,246);fill-rule:nonzero;"/>
            </g>
            <g transform="matrix(0,-1,-1,-0,283.948,252.016)">
                <path d="M-16.316,24.964L24.964,24.964L15.831,16.316L-16.316,16.316L-16.316,24.964Z" style="fill:rgb(125,225,246);fill-rule:nonzero;"/>
            </g>
            <g transform="matrix(0,-1,-1,-0,303.326,250.363)">
                <path d="M-17.97,26.617L18.907,26.617L26.617,17.969L-17.97,17.969L-17.97,26.617Z" style="fill:rgb(125,225,246);fill-rule:nonzero;"/>
            </g>
            <g transform="matrix(0,-1,-1,-0,231.861,260.446)">
                <path d="M-7.887,16.534L12.503,16.534L16.534,7.887L-7.887,7.887L-7.887,16.534Z" style="fill:rgb(93,218,244);fill-rule:nonzero;"/>
            </g>
            <g transform="matrix(0,-1,-1,-0,253.994,255.608)">
                <path d="M-12.724,21.372L13.771,21.372L21.372,12.724L-12.724,12.724L-12.724,21.372Z" style="fill:rgb(93,218,244);fill-rule:nonzero;"/>
            </g>
            <g transform="matrix(0,-1,-1,-0,275.064,252.252)">
                <path d="M-16.08,25.157L15.965,25.157L25.157,16.08L-16.08,16.08L-16.08,25.157Z" style="fill:rgb(93,218,244);fill-rule:nonzero;"/>
            </g>
            <g transform="matrix(0,-1,-1,-0,290.587,254.454)">
                <path d="M-13.878,22.955L18.167,22.955L22.955,13.878L-13.878,13.878L-13.878,22.955Z" style="fill:rgb(93,218,244);fill-rule:nonzero;"/>
            </g>
            <g transform="matrix(0,-1,-1,-0,309.896,248.388)">
                <path d="M-19.944,24.539L24.539,24.539L21.705,19.944L-19.944,19.944L-19.944,24.539Z" style="fill:rgb(93,218,244);fill-rule:nonzero;"/>
            </g>
            <g transform="matrix(1,0,0,1,420.82,281.477)">
                <path d="M0,-82.075L13.023,-69.428L13.023,0L-48.653,0L-48.653,-76.849C-48.653,-79.736 -46.314,-82.075 -43.428,-82.075L0,-82.075Z" style="fill:white;fill-rule:nonzero;"/>
            </g>
            <g>
                <g opacity="0.149994">
                    <g transform="matrix(1,0,0,1,421.592,224.746)">
                        <path d="M0,-14.01L12.25,0L12.25,-12.696L0,-14.01Z" style="fill:rgb(82,93,122);fill-rule:nonzero;"/>
                    </g>
                </g>
            </g>
            <g transform="matrix(0.717387,0.696675,0.696675,-0.717387,427.065,196.653)">
                <path d="M-2.565,-6.323L15.588,-6.323L8.738,-12.976C7.361,-14.313 5.162,-14.281 3.825,-12.904L-2.565,-6.323Z" style="fill:rgb(98,63,233);fill-rule:nonzero;"/>
            </g>
            <g transform="matrix(1,0,0,1,0,125.604)">
                <rect x="379.732" y="93.747" width="46.511" height="56.402" style="fill:rgb(178,214,244);"/>
            </g>
            <g transform="matrix(1,0,0,1,0,125.604)">
                <rect x="379.732" y="93.747" width="11.543" height="56.402" style="fill:white;"/>
            </g>
            <g transform="matrix(1,0,0,1,0,79.541)">
                <rect x="379.732" y="139.811" width="46.511" height="10.337" style="fill:rgb(245,247,249);"/>
            </g>
            <g transform="matrix(1,0,0,1,380.53,275.253)">
                <path d="M0,-55.401C-0.164,-55.401 -0.298,-55.267 -0.298,-55.103L-0.298,-0.297C-0.298,-0.133 -0.164,0 0,0L44.915,0C45.079,0 45.213,-0.133 45.213,-0.297L45.213,-55.103C45.213,-55.267 45.079,-55.401 44.915,-55.401L0,-55.401ZM44.915,1L0,1C-0.716,1 -1.298,0.418 -1.298,-0.297L-1.298,-55.103C-1.298,-55.819 -0.716,-56.401 0,-56.401L44.915,-56.401C45.631,-56.401 46.213,-55.819 46.213,-55.103L46.213,-0.297C46.213,0.418 45.631,1 44.915,1" style="fill:rgb(86,64,139);fill-rule:nonzero;"/>
            </g>
            <g transform="matrix(-1,-0,-0,1,805.975,89.878)">
                <rect x="379.732" y="139.311" width="46.511" height="1" style="fill:rgb(86,64,139);"/>
            </g>
            <g transform="matrix(-1,-0,-0,1,806.009,101.394)">
                <rect x="379.749" y="133.553" width="46.511" height="1" style="fill:rgb(86,64,139);"/>
            </g>
            <g transform="matrix(-1,-0,-0,1,782.55,135.942)">
                <rect x="390.775" y="93.747" width="1" height="46.064" style="fill:rgb(86,64,139);"/>
            </g>
            <g transform="matrix(-1,-0,-0,1,806.043,112.91)">
                <rect x="379.766" y="127.795" width="46.511" height="1" style="fill:rgb(86,64,139);"/>
            </g>
            <g transform="matrix(-1,-0,-0,1,806.077,124.426)">
                <rect x="379.783" y="122.037" width="46.511" height="1" style="fill:rgb(86,64,139);"/>
            </g>
            <g transform="matrix(-1,-0,-0,1,806.109,135.942)">
                <rect x="379.799" y="116.279" width="46.511" height="1" style="fill:rgb(86,64,139);"/>
            </g>
            <g transform="matrix(-1,-0,-0,1,806.143,147.458)">
                <rect x="379.816" y="110.521" width="46.511" height="1" style="fill:rgb(86,64,139);"/>
            </g>
            <g transform="matrix(-1,-0,-0,1,806.179,158.974)">
                <rect x="379.834" y="104.763" width="46.511" height="1" style="fill:rgb(86,64,139);"/>
            </g>
            <g transform="matrix(-1,-0,-0,1,806.211,170.49)">
                <rect x="379.85" y="99.005" width="46.511" height="1" style="fill:rgb(86,64,139);"/>
            </g>
            <g transform="matrix(1,0,0,1,400.953,213.138)">
                <path d="M0,3.493L-19.441,3.493C-20.405,3.493 -21.187,2.711 -21.187,1.746C-21.187,0.781 -20.405,0 -19.441,0L0,0C0.965,0 1.747,0.781 1.747,1.746C1.747,2.711 0.965,3.493 0,3.493" style="fill:rgb(242,244,247);fill-rule:nonzero;"/>
            </g>
            <g transform="matrix(1,0,0,1,245.912,272.958)">
                <path d="M0,-1.281C0.417,-3.496 2.71,-4.746 4.773,-3.952C6.34,-3.348 7.294,-1.653 6.984,-0.003C6.567,2.212 4.273,3.463 2.21,2.668C0.644,2.065 -0.311,0.369 0,-1.281M9.969,1.326L11.933,1.324C12.331,1.323 12.653,1.001 12.653,0.603L12.651,-1.902C12.65,-2.299 12.328,-2.621 11.93,-2.621L10.393,-2.62C10.138,-2.62 9.92,-2.784 9.83,-3.022C9.776,-3.166 9.717,-3.307 9.653,-3.447C9.548,-3.679 9.586,-3.95 9.766,-4.13L10.852,-5.218C11.134,-5.499 11.134,-5.955 10.852,-6.236L9.08,-8.007C8.799,-8.288 8.343,-8.288 8.062,-8.006L6.967,-6.91C6.794,-6.738 6.535,-6.689 6.311,-6.785C6.155,-6.851 5.986,-6.919 5.841,-6.976C5.613,-7.065 5.464,-7.284 5.464,-7.529L5.464,-9.082C5.464,-9.479 5.142,-9.802 4.744,-9.802L2.239,-9.802C1.842,-9.802 1.519,-9.479 1.519,-9.082L1.519,-7.544C1.519,-7.29 1.355,-7.072 1.117,-6.982C0.966,-6.925 0.818,-6.863 0.672,-6.796C0.44,-6.69 0.169,-6.727 -0.012,-6.907L-1.103,-7.991C-1.384,-8.272 -1.84,-8.27 -2.121,-7.988L-3.887,-6.212C-4.167,-5.93 -4.166,-5.474 -3.884,-5.194L-2.785,-4.101C-2.612,-3.929 -2.563,-3.67 -2.658,-3.446C-2.724,-3.289 -2.791,-3.121 -2.848,-2.975C-2.936,-2.747 -3.155,-2.598 -3.4,-2.597L-4.953,-2.593C-5.351,-2.593 -5.672,-2.269 -5.671,-1.872L-5.665,0.633C-5.664,1.031 -5.341,1.352 -4.943,1.351L-3.406,1.348C-3.151,1.347 -2.932,1.511 -2.842,1.749C-2.788,1.892 -2.729,2.034 -2.665,2.173C-2.559,2.405 -2.597,2.676 -2.776,2.857L-3.862,3.946C-4.142,4.228 -4.141,4.684 -3.86,4.965L-2.085,6.732C-1.803,7.013 -1.347,7.012 -1.066,6.73L0.027,5.632C0.199,5.46 0.458,5.41 0.683,5.506C0.839,5.572 1.008,5.64 1.153,5.696C1.381,5.784 1.53,6.004 1.531,6.248L1.533,7.802C1.534,8.199 1.856,8.521 2.254,8.52L4.759,8.516C5.157,8.515 5.479,8.193 5.478,7.795L5.475,6.258C5.475,6.003 5.639,5.784 5.877,5.694C6.021,5.64 6.162,5.581 6.302,5.517C6.533,5.412 6.805,5.449 6.985,5.629L8.074,6.715C8.355,6.996 8.811,6.996 9.092,6.714L10.861,4.941C11.142,4.659 11.142,4.203 10.86,3.922L9.763,2.828C9.591,2.656 9.541,2.397 9.637,2.173C9.797,1.798 9.961,1.352 9.969,1.326" style="fill:rgb(98,63,233);fill-rule:nonzero;"/>
            </g>
            <g transform="matrix(-1,-0,-0,1,437.407,86.887)">
                <rect x="204.406" y="134.82" width="28.595" height="12.973" style="fill:rgb(98,63,233);"/>
            </g>
            <g transform="matrix(1,0,0,1,229.707,225.21)">
                <path d="M0,-0.5L-22.53,-0.5C-22.852,-0.5 -22.852,0 -22.53,0L0,0C0.322,0 0.322,-0.5 0,-0.5" style="fill:white;fill-rule:nonzero;"/>
            </g>
            <g transform="matrix(1,0,0,1,229.707,228.362)">
                <path d="M0,-0.5L-22.53,-0.5C-22.852,-0.5 -22.852,0 -22.53,0L0,0C0.322,0 0.322,-0.5 0,-0.5" style="fill:white;fill-rule:nonzero;"/>
            </g>
            <g transform="matrix(1,0,0,1,219.516,231.245)">
                <path d="M0,-0.5L-12.339,-0.5C-12.661,-0.5 -12.662,0 -12.339,0L0,0C0.322,0 0.322,-0.5 0,-0.5" style="fill:white;fill-rule:nonzero;"/>
            </g>
            <g>
                <g opacity="0.199997">
                    <g transform="matrix(1,0,0,1,385.016,281.478)">
                        <path d="M0,-82.276C-0.129,-82.276 -0.194,-82.176 -0.194,-82.075L-7.624,-82.075C-10.51,-82.075 -12.85,-79.736 -12.85,-76.85L-12.85,0L1.081,0L1.081,-82.276L0,-82.276Z" style="fill:rgb(82,93,122);fill-rule:nonzero;"/>
                    </g>
                </g>
            </g>
            <g>
                <g opacity="0.199997">
                    <g transform="matrix(1,0,0,1,289.335,208.959)">
                        <path d="M0,72.519C0.226,72.499 0.455,72.489 0.679,72.464C2.46,72.35 4.198,71.97 5.84,71.334C7.969,70.577 10.018,69.415 11.979,67.601C11.98,67.6 11.979,67.599 11.98,67.598C11.985,67.592 11.985,67.583 11.989,67.577C12.046,67.508 12.04,67.433 12,67.371C11.972,67.31 11.925,67.259 11.837,67.259L11.837,64.243L5.868,64.243L5.868,1.204C5.868,0.65 5.419,0.201 4.865,0.201L-5.375,0.201C-5.375,0.1 -5.439,0 -5.568,0L-6.444,0L-6.444,15.024C-6.544,15.024 -6.645,15.088 -6.645,15.217L-6.645,40.194C-6.645,40.323 -6.544,40.388 -6.444,40.388L-6.444,72.519L0,72.519Z" style="fill:rgb(82,93,122);fill-rule:nonzero;"/>
                    </g>
                </g>
            </g>
            <g transform="matrix(1,0,0,1,383.489,144.315)">
                <path d="M0,137.163L-98.19,137.163L-98.19,3.134C-98.19,1.403 -96.787,0 -95.056,0L-3.133,0C-1.403,0 0,1.403 0,3.134L0,137.163Z" style="fill:white;fill-rule:nonzero;"/>
            </g>
            <g transform="matrix(98.1897,0,0,-98.1897,285.299,151.704)">
                <path d="M0.035,0.075C0.016,0.075 0,0.06 0,0.041L0,-0.075L1,-0.075L1,0.041C1,0.06 0.984,0.075 0.965,0.075L0.035,0.075Z" style="fill:url(#_Linear2);fill-rule:nonzero;"/>
            </g>
            <g transform="matrix(1,0,0,1,296.83,151.705)">
                <path d="M0,-0.001C0,1.086 -0.88,1.966 -1.966,1.966C-3.053,1.966 -3.933,1.086 -3.933,-0.001C-3.933,-1.087 -3.053,-1.967 -1.966,-1.967C-0.88,-1.967 0,-1.087 0,-0.001" style="fill:white;fill-rule:nonzero;"/>
            </g>
            <g transform="matrix(1,0,0,1,303.383,151.705)">
                <path d="M0,-0.001C0,1.086 -0.88,1.966 -1.967,1.966C-3.053,1.966 -3.933,1.086 -3.933,-0.001C-3.933,-1.087 -3.053,-1.967 -1.967,-1.967C-0.88,-1.967 0,-1.087 0,-0.001" style="fill:white;fill-rule:nonzero;"/>
            </g>
            <g transform="matrix(1,0,0,1,309.936,151.705)">
                <path d="M0,-0.001C0,1.086 -0.88,1.966 -1.967,1.966C-3.053,1.966 -3.933,1.086 -3.933,-0.001C-3.933,-1.087 -3.053,-1.967 -1.967,-1.967C-0.88,-1.967 0,-1.087 0,-0.001" style="fill:white;fill-rule:nonzero;"/>
            </g>
            <g transform="matrix(1,0,0,1,294.101,201.995)">
                <path d="M0,0.5L78.769,0.5C79.091,0.5 79.091,0 78.769,0L0,0C-0.322,0 -0.322,0.5 0,0.5" style="fill:rgb(245,247,249);fill-rule:nonzero;"/>
            </g>
            <g transform="matrix(1,0,0,1,294.101,208.3)">
                <path d="M0,0.5L10.909,0.5C11.23,0.5 11.231,0 10.909,0L0,0C-0.322,0 -0.322,0.5 0,0.5" style="fill:rgb(245,247,249);fill-rule:nonzero;"/>
            </g>
            <g transform="matrix(1,0,0,1,373.51,208.8)">
                <path d="M0,-0.5L-65.541,-0.5C-65.863,-0.5 -65.863,0 -65.541,0L0,0C0.322,0 0.322,-0.5 0,-0.5" style="fill:rgb(245,247,249);fill-rule:nonzero;"/>
            </g>
            <g transform="matrix(1,0,0,1,333.485,214.605)">
                <path d="M0,0.5L39.385,0.5C39.706,0.5 39.707,0 39.385,0L0,0C-0.322,0 -0.322,0.5 0,0.5" style="fill:rgb(245,247,249);fill-rule:nonzero;"/>
            </g>
            <g transform="matrix(1,0,0,1,294.101,214.605)">
                <path d="M0,0.5L35.832,0.5C36.154,0.5 36.154,0 35.832,0L0,0C-0.322,0 -0.322,0.5 0,0.5" style="fill:rgb(245,247,249);fill-rule:nonzero;"/>
            </g>
            <g transform="matrix(1,0,0,1,297.311,264.221)">
                <path d="M0,0.5L45.549,0.5C45.871,0.5 45.871,0 45.549,0L0,0C-0.322,0 -0.322,0.5 0,0.5" style="fill:rgb(245,247,249);fill-rule:nonzero;"/>
            </g>
            <g transform="matrix(1,0,0,1,297.311,269.572)">
                <path d="M0,0.5L46.753,0.5C47.074,0.5 47.075,0 46.753,0L0,0C-0.322,0 -0.322,0.5 0,0.5" style="fill:rgb(245,247,249);fill-rule:nonzero;"/>
            </g>
            <g transform="matrix(1,0,0,1,297.311,274.922)">
                <path d="M0,0.5L14.706,0.5C15.027,0.5 15.028,0 14.706,0L0,0C-0.322,0 -0.322,0.5 0,0.5" style="fill:rgb(245,247,249);fill-rule:nonzero;"/>
            </g>
            <g transform="matrix(-1,-0,-0,1,692.943,8.409)">
                <rect x="342.984" y="174.613" width="6.975" height="11.865" style="fill:rgb(246,246,246);"/>
            </g>
            <g transform="matrix(-1,-0,-0,1,711.775,1.434)">
                <rect x="352.4" y="174.613" width="6.975" height="18.84" style="fill:rgb(246,246,246);"/>
            </g>
            <g transform="matrix(-1,-0,-0,1,730.609,-5.89)">
                <rect x="361.817" y="174.613" width="6.975" height="26.164" style="fill:rgb(93,218,244);"/>
            </g>
            <g transform="matrix(-1,-0,-0,1,627.196,-19.485)">
                <rect x="292.548" y="193.315" width="42.1" height="2.355" style="fill:rgb(246,246,246);"/>
            </g>
            <g transform="matrix(-1,-0,-0,1,610.019,-19.485)">
                <rect x="292.548" y="193.315" width="24.923" height="2.355" style="fill:rgb(86,64,139);"/>
            </g>
            <g transform="matrix(-1,-0,-0,1,627.196,-0.783)">
                <rect x="292.548" y="183.964" width="42.1" height="2.355" style="fill:rgb(246,246,246);"/>
            </g>
            <g transform="matrix(-1,-0,-0,1,601.548,-0.783)">
                <rect x="292.548" y="183.964" width="16.452" height="2.355" style="fill:rgb(86,64,139);"/>
            </g>
            <g transform="matrix(-1,-0,-0,1,627.196,17.919)">
                <rect x="292.548" y="174.613" width="42.1" height="2.355" style="fill:rgb(246,246,246);"/>
            </g>
            <g transform="matrix(-1,-0,-0,1,593.661,17.919)">
                <rect x="292.548" y="174.613" width="8.565" height="2.355" style="fill:rgb(86,64,139);"/>
            </g>
            <g transform="matrix(-1,-0,-0,1,611.143,82.836)">
                <rect x="293.672" y="137.933" width="23.799" height="10.798" style="fill:rgb(93,218,244);"/>
            </g>
            <g transform="matrix(1,0,0,1,314.729,224.137)">
                <path d="M0,-0.5L-18.752,-0.5C-19.073,-0.5 -19.074,0 -18.752,0L0,0C0.322,0 0.322,-0.5 0,-0.5" style="fill:white;fill-rule:nonzero;"/>
            </g>
            <g transform="matrix(1,0,0,1,314.729,226.761)">
                <path d="M0,-0.5L-18.752,-0.5C-19.073,-0.5 -19.074,0 -18.752,0L0,0C0.322,0 0.322,-0.5 0,-0.5" style="fill:white;fill-rule:nonzero;"/>
            </g>
            <g transform="matrix(1,0,0,1,306.248,229.161)">
                <path d="M0,-0.5L-10.27,-0.5C-10.592,-0.5 -10.592,0 -10.27,0L0,0C0.322,0 0.322,-0.5 0,-0.5" style="fill:white;fill-rule:nonzero;"/>
            </g>
            <g transform="matrix(78.5204,0,0,-78.5204,294.01,240.759)">
                <path d="M0.9,0.125L0.722,0.125L0.607,0L0.429,-0.03L0.271,-0.166L0.053,-0.166L0,-0.199L1,-0.199L1,0.199L0.9,0.125Z" style="fill:url(#_Linear3);fill-rule:nonzero;"/>
            </g>
            <g transform="matrix(1,0,0,1,315.564,257.805)">
                <path d="M0,1.791L0,0.001C0,-0.321 -0.5,-0.322 -0.5,0.001L-0.5,1.791C-0.5,2.113 0,2.113 0,1.791" style="fill:rgb(86,64,139);fill-rule:nonzero;"/>
            </g>
            <g transform="matrix(1,0,0,1,315.564,254.844)">
                <path d="M0,1.791L0,0.001C0,-0.321 -0.5,-0.322 -0.5,0.001L-0.5,1.791C-0.5,2.113 0,2.113 0,1.791" style="fill:rgb(86,64,139);fill-rule:nonzero;"/>
            </g>
            <g transform="matrix(1,0,0,1,315.564,251.883)">
                <path d="M0,1.791L0,0.001C0,-0.321 -0.5,-0.322 -0.5,0.001L-0.5,1.791C-0.5,2.113 0,2.113 0,1.791" style="fill:rgb(86,64,139);fill-rule:nonzero;"/>
            </g>
            <g transform="matrix(1,0,0,1,315.564,248.921)">
                <path d="M0,1.791L0,0.001C0,-0.321 -0.5,-0.322 -0.5,0.001L-0.5,1.791C-0.5,2.113 0,2.113 0,1.791" style="fill:rgb(86,64,139);fill-rule:nonzero;"/>
            </g>
            <g transform="matrix(1,0,0,1,315.564,245.96)">
                <path d="M0,1.791L0,0.001C0,-0.321 -0.5,-0.322 -0.5,0.001L-0.5,1.791C-0.5,2.113 0,2.113 0,1.791" style="fill:rgb(86,64,139);fill-rule:nonzero;"/>
            </g>
            <g transform="matrix(1,0,0,1,315.564,242.999)">
                <path d="M0,1.791L0,0.001C0,-0.321 -0.5,-0.322 -0.5,0.001L-0.5,1.791C-0.5,2.113 0,2.113 0,1.791" style="fill:rgb(86,64,139);fill-rule:nonzero;"/>
            </g>
            <g transform="matrix(1,0,0,1,340.323,257.805)">
                <path d="M0,1.791L0,0.001C0,-0.321 -0.5,-0.322 -0.5,0.001L-0.5,1.791C-0.5,2.113 0,2.113 0,1.791" style="fill:rgb(86,64,139);fill-rule:nonzero;"/>
            </g>
            <g transform="matrix(1,0,0,1,340.323,254.844)">
                <path d="M0,1.791L0,0.001C0,-0.321 -0.5,-0.322 -0.5,0.001L-0.5,1.791C-0.5,2.113 0,2.113 0,1.791" style="fill:rgb(86,64,139);fill-rule:nonzero;"/>
            </g>
            <g transform="matrix(1,0,0,1,340.324,251.883)">
                <path d="M0,1.791L0,0.001C0,-0.321 -0.5,-0.322 -0.5,0.001L-0.5,1.791C-0.5,2.113 0,2.113 0,1.791" style="fill:rgb(86,64,139);fill-rule:nonzero;"/>
            </g>
            <g transform="matrix(1,0,0,1,340.324,248.921)">
                <path d="M0,1.791L0,0.001C0,-0.321 -0.5,-0.322 -0.5,0.001L-0.5,1.791C-0.5,2.113 0,2.113 0,1.791" style="fill:rgb(86,64,139);fill-rule:nonzero;"/>
            </g>
            <g transform="matrix(1,0,0,1,340.324,245.96)">
                <path d="M0,1.791L0,0.001C0,-0.321 -0.5,-0.322 -0.5,0.001L-0.5,1.791C-0.5,2.113 0,2.113 0,1.791" style="fill:rgb(86,64,139);fill-rule:nonzero;"/>
            </g>
            <g transform="matrix(1,0,0,1,340.324,242.999)">
                <path d="M0,1.791L0,0.001C0,-0.321 -0.5,-0.322 -0.5,0.001L-0.5,1.791C-0.5,2.113 0,2.113 0,1.791" style="fill:rgb(86,64,139);fill-rule:nonzero;"/>
            </g>
            <g transform="matrix(1,0,0,1,340.324,240.038)">
                <path d="M0,1.791L0,0.001C0,-0.321 -0.5,-0.322 -0.5,0.001L-0.5,1.791C-0.5,2.113 0,2.113 0,1.791" style="fill:rgb(86,64,139);fill-rule:nonzero;"/>
            </g>
            <g transform="matrix(1,0,0,1,340.324,237.077)">
                <path d="M0,1.791L0,0.001C0,-0.321 -0.5,-0.322 -0.5,0.001L-0.5,1.791C-0.5,2.113 0,2.113 0,1.791" style="fill:rgb(86,64,139);fill-rule:nonzero;"/>
            </g>
            <g transform="matrix(1,0,0,1,340.324,234.115)">
                <path d="M0,1.791L0,0.001C0,-0.321 -0.5,-0.322 -0.5,0.001L-0.5,1.791C-0.5,2.113 0,2.113 0,1.791" style="fill:rgb(86,64,139);fill-rule:nonzero;"/>
            </g>
            <g transform="matrix(1,0,0,1,340.325,231.154)">
                <path d="M0,1.791L0,0.001C0,-0.321 -0.5,-0.322 -0.5,0.001L-0.5,1.791C-0.5,2.113 0,2.113 0,1.791" style="fill:rgb(86,64,139);fill-rule:nonzero;"/>
            </g>
            <g transform="matrix(1,0,0,1,327.944,257.805)">
                <path d="M0,1.791L0,0.001C0,-0.321 -0.5,-0.322 -0.5,0.001L-0.5,1.791C-0.5,2.113 0,2.113 0,1.791" style="fill:rgb(86,64,139);fill-rule:nonzero;"/>
            </g>
            <g transform="matrix(1,0,0,1,327.944,254.844)">
                <path d="M0,1.791L0,0.001C0,-0.321 -0.5,-0.322 -0.5,0.001L-0.5,1.791C-0.5,2.113 0,2.113 0,1.791" style="fill:rgb(86,64,139);fill-rule:nonzero;"/>
            </g>
            <g transform="matrix(1,0,0,1,327.944,251.883)">
                <path d="M0,1.791L0,0.001C0,-0.321 -0.5,-0.322 -0.5,0.001L-0.5,1.791C-0.5,2.113 0,2.113 0,1.791" style="fill:rgb(86,64,139);fill-rule:nonzero;"/>
            </g>
            <g transform="matrix(1,0,0,1,327.944,248.921)">
                <path d="M0,1.791L0,0.001C0,-0.321 -0.5,-0.322 -0.5,0.001L-0.5,1.791C-0.5,2.113 0,2.113 0,1.791" style="fill:rgb(86,64,139);fill-rule:nonzero;"/>
            </g>
            <g transform="matrix(1,0,0,1,327.944,245.96)">
                <path d="M0,1.791L0,0.001C0,-0.321 -0.5,-0.322 -0.5,0.001L-0.5,1.791C-0.5,2.113 0,2.113 0,1.791" style="fill:rgb(86,64,139);fill-rule:nonzero;"/>
            </g>
            <g transform="matrix(1,0,0,1,327.944,242.999)">
                <path d="M0,1.791L0,0.001C0,-0.321 -0.5,-0.322 -0.5,0.001L-0.5,1.791C-0.5,2.113 0,2.113 0,1.791" style="fill:rgb(86,64,139);fill-rule:nonzero;"/>
            </g>
            <g transform="matrix(1,0,0,1,327.944,240.038)">
                <path d="M0,1.791L0,0.001C0,-0.321 -0.5,-0.322 -0.5,0.001L-0.5,1.791C-0.5,2.113 0,2.113 0,1.791" style="fill:rgb(86,64,139);fill-rule:nonzero;"/>
            </g>
            <g transform="matrix(1,0,0,1,327.944,237.077)">
                <path d="M0,1.791L0,0.001C0,-0.321 -0.5,-0.322 -0.5,0.001L-0.5,1.791C-0.5,2.113 0,2.113 0,1.791" style="fill:rgb(86,64,139);fill-rule:nonzero;"/>
            </g>
            <g transform="matrix(1,0,0,1,327.945,234.115)">
                <path d="M0,1.791L0,0.001C0,-0.321 -0.5,-0.322 -0.5,0.001L-0.5,1.791C-0.5,2.113 0,2.113 0,1.791" style="fill:rgb(86,64,139);fill-rule:nonzero;"/>
            </g>
            <g transform="matrix(1,0,0,1,327.945,231.154)">
                <path d="M0,1.791L0,0.001C0,-0.321 -0.5,-0.322 -0.5,0.001L-0.5,1.791C-0.5,2.113 0,2.113 0,1.791" style="fill:rgb(86,64,139);fill-rule:nonzero;"/>
            </g>
            <g transform="matrix(1,0,0,1,352.703,257.805)">
                <path d="M0,1.791L0,0.001C0,-0.321 -0.5,-0.322 -0.5,0.001L-0.5,1.791C-0.5,2.113 0,2.113 0,1.791" style="fill:rgb(86,64,139);fill-rule:nonzero;"/>
            </g>
            <g transform="matrix(1,0,0,1,352.703,254.844)">
                <path d="M0,1.791L0,0.001C0,-0.321 -0.5,-0.322 -0.5,0.001L-0.5,1.791C-0.5,2.113 0,2.113 0,1.791" style="fill:rgb(86,64,139);fill-rule:nonzero;"/>
            </g>
            <g transform="matrix(1,0,0,1,352.703,251.883)">
                <path d="M0,1.791L0,0.001C0,-0.321 -0.5,-0.322 -0.5,0.001L-0.5,1.791C-0.5,2.113 0,2.113 0,1.791" style="fill:rgb(86,64,139);fill-rule:nonzero;"/>
            </g>
            <g transform="matrix(1,0,0,1,352.704,248.921)">
                <path d="M0,1.791L0,0.001C0,-0.321 -0.5,-0.322 -0.5,0.001L-0.5,1.791C-0.5,2.113 0,2.113 0,1.791" style="fill:rgb(86,64,139);fill-rule:nonzero;"/>
            </g>
            <g transform="matrix(1,0,0,1,352.704,245.96)">
                <path d="M0,1.791L0,0.001C0,-0.321 -0.5,-0.322 -0.5,0.001L-0.5,1.791C-0.5,2.113 0,2.113 0,1.791" style="fill:rgb(86,64,139);fill-rule:nonzero;"/>
            </g>
            <g transform="matrix(1,0,0,1,352.704,242.999)">
                <path d="M0,1.791L0,0.001C0,-0.321 -0.5,-0.322 -0.5,0.001L-0.5,1.791C-0.5,2.113 0,2.113 0,1.791" style="fill:rgb(86,64,139);fill-rule:nonzero;"/>
            </g>
            <g transform="matrix(1,0,0,1,352.704,240.038)">
                <path d="M0,1.791L0,0.001C0,-0.321 -0.5,-0.322 -0.5,0.001L-0.5,1.791C-0.5,2.113 0,2.113 0,1.791" style="fill:rgb(86,64,139);fill-rule:nonzero;"/>
            </g>
            <g transform="matrix(1,0,0,1,352.704,237.077)">
                <path d="M0,1.791L0,0.001C0,-0.321 -0.5,-0.322 -0.5,0.001L-0.5,1.791C-0.5,2.113 0,2.113 0,1.791" style="fill:rgb(86,64,139);fill-rule:nonzero;"/>
            </g>
            <g transform="matrix(1,0,0,1,352.704,234.115)">
                <path d="M0,1.791L0,0.001C0,-0.321 -0.5,-0.322 -0.5,0.001L-0.5,1.791C-0.5,2.113 0,2.113 0,1.791" style="fill:rgb(86,64,139);fill-rule:nonzero;"/>
            </g>
            <g transform="matrix(1,0,0,1,352.704,231.154)">
                <path d="M0,1.791L0,0.001C0,-0.321 -0.5,-0.322 -0.5,0.001L-0.5,1.791C-0.5,2.113 0,2.113 0,1.791" style="fill:rgb(86,64,139);fill-rule:nonzero;"/>
            </g>
            <g transform="matrix(1,0,0,1,352.704,228.193)">
                <path d="M0,1.791L0,0.001C0,-0.321 -0.5,-0.322 -0.5,0.001L-0.5,1.791C-0.5,2.113 0,2.113 0,1.791" style="fill:rgb(86,64,139);fill-rule:nonzero;"/>
            </g>
            <g transform="matrix(1,0,0,1,352.704,225.232)">
                <path d="M0,1.791L0,0.001C0,-0.321 -0.5,-0.322 -0.5,0.001L-0.5,1.791C-0.5,2.113 0,2.113 0,1.791" style="fill:rgb(86,64,139);fill-rule:nonzero;"/>
            </g>
            <g transform="matrix(1,0,0,1,365.083,257.805)">
                <path d="M0,1.791L0,0.001C0,-0.321 -0.5,-0.322 -0.5,0.001L-0.5,1.791C-0.5,2.113 0,2.113 0,1.791" style="fill:rgb(86,64,139);fill-rule:nonzero;"/>
            </g>
            <g transform="matrix(1,0,0,1,365.083,254.844)">
                <path d="M0,1.791L0,0.001C0,-0.321 -0.5,-0.322 -0.5,0.001L-0.5,1.791C-0.5,2.113 0,2.113 0,1.791" style="fill:rgb(86,64,139);fill-rule:nonzero;"/>
            </g>
            <g transform="matrix(1,0,0,1,365.083,251.883)">
                <path d="M0,1.791L0,0.001C0,-0.321 -0.5,-0.322 -0.5,0.001L-0.5,1.791C-0.5,2.113 0,2.113 0,1.791" style="fill:rgb(86,64,139);fill-rule:nonzero;"/>
            </g>
            <g transform="matrix(1,0,0,1,365.083,248.921)">
                <path d="M0,1.791L0,0.001C0,-0.321 -0.5,-0.322 -0.5,0.001L-0.5,1.791C-0.5,2.113 0,2.113 0,1.791" style="fill:rgb(86,64,139);fill-rule:nonzero;"/>
            </g>
            <g transform="matrix(1,0,0,1,365.083,245.96)">
                <path d="M0,1.791L0,0.001C0,-0.321 -0.5,-0.322 -0.5,0.001L-0.5,1.791C-0.5,2.113 0,2.113 0,1.791" style="fill:rgb(86,64,139);fill-rule:nonzero;"/>
            </g>
            <g transform="matrix(1,0,0,1,365.083,242.999)">
                <path d="M0,1.791L0,0.001C0,-0.321 -0.5,-0.322 -0.5,0.001L-0.5,1.791C-0.5,2.113 0,2.113 0,1.791" style="fill:rgb(86,64,139);fill-rule:nonzero;"/>
            </g>
            <g transform="matrix(1,0,0,1,365.083,240.038)">
                <path d="M0,1.791L0,0.001C0,-0.321 -0.5,-0.322 -0.5,0.001L-0.5,1.791C-0.5,2.113 0,2.113 0,1.791" style="fill:rgb(86,64,139);fill-rule:nonzero;"/>
            </g>
            <g transform="matrix(1,0,0,1,365.083,237.077)">
                <path d="M0,1.791L0,0.001C0,-0.321 -0.5,-0.322 -0.5,0.001L-0.5,1.791C-0.5,2.113 0,2.113 0,1.791" style="fill:rgb(86,64,139);fill-rule:nonzero;"/>
            </g>
            <g transform="matrix(1,0,0,1,365.083,234.115)">
                <path d="M0,1.791L0,0.001C0,-0.321 -0.5,-0.322 -0.5,0.001L-0.5,1.791C-0.5,2.113 0,2.113 0,1.791" style="fill:rgb(86,64,139);fill-rule:nonzero;"/>
            </g>
            <g transform="matrix(1,0,0,1,365.084,231.154)">
                <path d="M0,1.791L0,0.001C0,-0.321 -0.5,-0.322 -0.5,0.001L-0.5,1.791C-0.5,2.113 0,2.113 0,1.791" style="fill:rgb(86,64,139);fill-rule:nonzero;"/>
            </g>
            <g transform="matrix(1,0,0,1,365.084,228.193)">
                <path d="M0,1.791L0,0.001C0,-0.321 -0.5,-0.322 -0.5,0.001L-0.5,1.791C-0.5,2.113 0,2.113 0,1.791" style="fill:rgb(86,64,139);fill-rule:nonzero;"/>
            </g>
            <g transform="matrix(1,0,0,1,365.084,225.232)">
                <path d="M0,1.791L0,0.001C0,-0.321 -0.5,-0.322 -0.5,0.001L-0.5,1.791C-0.5,2.113 0,2.113 0,1.791" style="fill:rgb(86,64,139);fill-rule:nonzero;"/>
            </g>
            <g transform="matrix(1,0,0,1,365.084,222.27)">
                <path d="M0,1.791L0,0.001C0,-0.321 -0.5,-0.322 -0.5,0.001L-0.5,1.791C-0.5,2.113 0,2.113 0,1.791" style="fill:rgb(86,64,139);fill-rule:nonzero;"/>
            </g>
            <g transform="matrix(1,0,0,1,365.084,219.309)">
                <path d="M0,1.791L0,0.001C0,-0.321 -0.5,-0.322 -0.5,0.001L-0.5,1.791C-0.5,2.113 0,2.113 0,1.791" style="fill:rgb(86,64,139);fill-rule:nonzero;"/>
            </g>
            <g transform="matrix(1,0,0,1,402.556,261.641)">
                <path d="M0,19.837L-53.379,19.837C-55.818,19.837 -57.794,17.86 -57.794,15.422L-57.794,4.415C-57.794,1.977 -55.818,0 -53.379,0L0,0C2.439,0 4.415,1.977 4.415,4.415L4.415,15.422C4.415,17.86 2.439,19.837 0,19.837" style="fill:rgb(86,64,139);fill-rule:nonzero;"/>
            </g>
            <g>
                <g opacity="0.149994">
                    <g transform="matrix(1,0,0,1,404.48,281.477)">
                        <path d="M0,-19.469C0.234,-18.945 0.368,-18.366 0.368,-17.755L0.368,-6.329C0.368,-4.006 -1.515,-2.123 -3.838,-2.123L-57.637,-2.123C-58.248,-2.123 -58.827,-2.257 -59.351,-2.491C-58.694,-1.024 -57.224,0 -55.513,0L-1.714,0C0.608,0 2.491,-1.883 2.491,-4.205L2.491,-15.631C2.491,-17.343 1.467,-18.812 0,-19.469" style="fill:rgb(82,93,122);fill-rule:nonzero;"/>
                    </g>
                </g>
            </g>
            <g transform="matrix(1,0,0,1,361.709,264.205)">
                <path d="M0,14.448L-8.904,14.448C-10.435,14.448 -11.676,13.207 -11.676,11.676L-11.676,2.772C-11.676,1.241 -10.435,0 -8.904,0L0,0C1.531,0 2.772,1.241 2.772,2.772L2.772,11.676C2.772,13.207 1.531,14.448 0,14.448" style="fill:white;fill-rule:nonzero;"/>
            </g>
            <g transform="matrix(-1,-0,-0,1,768.384,164.872)">
                <rect x="366.386" y="101.814" width="35.612" height="1" style="fill:rgb(245,247,249);"/>
            </g>
            <g transform="matrix(-1,-0,-0,1,781.225,173.62)">
                <rect x="379.227" y="97.44" width="22.771" height="1" style="fill:rgb(245,247,249);"/>
            </g>
            <g transform="matrix(-1,-0,-0,1,742.77,173.62)">
                <rect x="366.386" y="97.44" width="9.998" height="1" style="fill:rgb(245,247,249);"/>
            </g>
            <g transform="matrix(-1,-0,-0,1,751.513,182.366)">
                <rect x="366.386" y="93.067" width="18.741" height="1" style="fill:rgb(245,247,249);"/>
            </g>
            <g transform="matrix(1,0,0,1,355.471,272.099)">
                <path d="M0,-0.711C0.231,-1.939 1.503,-2.633 2.647,-2.192C3.516,-1.857 4.045,-0.917 3.873,-0.002C3.642,1.226 2.369,1.919 1.226,1.479C0.357,1.144 -0.172,0.204 0,-0.711M5.528,0.734L6.617,0.733C6.838,0.733 7.016,0.554 7.016,0.334L7.015,-1.055C7.015,-1.276 6.836,-1.454 6.615,-1.454L5.763,-1.454C5.622,-1.453 5.501,-1.544 5.451,-1.676C5.421,-1.756 5.388,-1.835 5.353,-1.912C5.294,-2.04 5.315,-2.191 5.415,-2.291L6.018,-2.894C6.174,-3.05 6.174,-3.303 6.018,-3.459L5.035,-4.441C4.879,-4.596 4.626,-4.596 4.471,-4.44L3.863,-3.833C3.768,-3.737 3.624,-3.71 3.5,-3.763C3.413,-3.8 3.319,-3.838 3.239,-3.869C3.112,-3.918 3.03,-4.04 3.03,-4.176L3.03,-5.037C3.03,-5.257 2.851,-5.436 2.631,-5.436L1.242,-5.436C1.021,-5.436 0.842,-5.257 0.842,-5.037L0.842,-4.184C0.842,-4.043 0.751,-3.922 0.619,-3.872C0.536,-3.841 0.454,-3.807 0.372,-3.769C0.244,-3.71 0.094,-3.731 -0.007,-3.831L-0.611,-4.432C-0.768,-4.588 -1.021,-4.587 -1.176,-4.43L-2.155,-3.445C-2.311,-3.289 -2.31,-3.036 -2.154,-2.881L-1.544,-2.275C-1.448,-2.18 -1.421,-2.036 -1.474,-1.911C-1.511,-1.825 -1.548,-1.731 -1.579,-1.65C-1.628,-1.524 -1.75,-1.441 -1.885,-1.441L-2.747,-1.439C-2.967,-1.438 -3.145,-1.259 -3.145,-1.039L-3.141,0.351C-3.141,0.571 -2.962,0.749 -2.741,0.749L-1.889,0.747C-1.747,0.746 -1.626,0.837 -1.576,0.969C-1.546,1.049 -1.513,1.127 -1.478,1.204C-1.419,1.333 -1.44,1.483 -1.539,1.583L-2.141,2.188C-2.297,2.344 -2.296,2.597 -2.14,2.752L-1.156,3.733C-1,3.888 -0.747,3.888 -0.591,3.731L0.015,3.123C0.11,3.027 0.254,2.999 0.379,3.052C0.465,3.089 0.559,3.127 0.639,3.158C0.766,3.207 0.848,3.329 0.849,3.464L0.85,4.325C0.85,4.546 1.029,4.725 1.25,4.724L2.639,4.722C2.86,4.721 3.038,4.542 3.038,4.322L3.036,3.469C3.036,3.328 3.127,3.207 3.259,3.157C3.339,3.127 3.417,3.094 3.495,3.059C3.623,3 3.773,3.021 3.873,3.121L4.477,3.723C4.633,3.879 4.886,3.879 5.042,3.723L6.023,2.739C6.179,2.583 6.178,2.33 6.022,2.174L5.414,1.568C5.318,1.472 5.291,1.328 5.344,1.204C5.433,0.996 5.524,0.749 5.528,0.734" style="fill:rgb(86,64,139);fill-rule:nonzero;"/>
            </g>
            <g transform="matrix(1,0,0,1,281.862,268.186)">
                <path d="M0,0C0,7.392 -5.992,13.385 -13.385,13.385C-20.777,13.385 -26.769,7.392 -26.769,0C-26.769,-7.392 -20.777,-13.385 -13.385,-13.385C-5.992,-13.385 0,-7.392 0,0" style="fill:white;fill-rule:nonzero;"/>
            </g>
            <g transform="matrix(1,0,0,1,280.399,268.186)">
                <path d="M0,0C0,6.584 -5.337,11.922 -11.922,11.922C-18.506,11.922 -23.844,6.584 -23.844,0C-23.844,-6.584 -18.506,-11.922 -11.922,-11.922C-5.337,-11.922 0,-6.584 0,0" style="fill:rgb(242,244,247);fill-rule:nonzero;"/>
            </g>
            <g transform="matrix(1,0,0,1,279,268.186)">
                <path d="M0,0C0,5.811 -4.711,10.522 -10.522,10.522C-16.333,10.522 -21.044,5.811 -21.044,0C-21.044,-5.811 -16.333,-10.522 -10.522,-10.522C-4.711,-10.522 0,-5.811 0,0" style="fill:white;fill-rule:nonzero;"/>
            </g>
            <g transform="matrix(1,0,0,1,269.849,262.494)">
                <path d="M0,11.059L-3.899,11.059C-4.795,11.059 -5.525,10.329 -5.525,9.433L-5.525,8.599L-3.21,8.599L-3.21,8.744L0,8.744C0.617,8.744 1.119,8.242 1.119,7.625C1.119,7.223 0.792,6.896 0.391,6.896L-2.482,6.896C-4.16,6.896 -5.525,5.531 -5.525,3.852L-5.525,3.435C-5.525,1.54 -3.984,0 -2.091,0L1.807,0C2.704,0 3.434,0.73 3.434,1.626L3.434,2.572L1.119,2.572L1.119,2.315L-2.091,2.315C-2.708,2.315 -3.21,2.818 -3.21,3.435L-3.21,3.852C-3.21,4.254 -2.883,4.581 -2.482,4.581L0.391,4.581C2.069,4.581 3.434,5.946 3.434,7.625C3.434,9.519 1.893,11.059 0,11.059" style="fill:rgb(86,64,139);fill-rule:nonzero;"/>
            </g>
            <g transform="matrix(-1,-0,-0,1,537.607,166.873)">
                <rect x="267.646" y="94.497" width="2.315" height="13.633" style="fill:rgb(86,64,139);"/>
            </g>
            <g>
                <g opacity="0.199997">
                    <g transform="matrix(1,0,0,1,270.903,268.257)">
                        <path d="M0,-1.016C0.018,3.858 2.389,7.981 5.982,10.581C6.13,10.465 6.283,10.357 6.427,10.233C11.43,5.93 12.608,-1.607 9.127,-7.223C7.965,-9.098 6.448,-10.554 4.724,-11.597C1.832,-8.995 -0.016,-5.294 0,-1.016" style="fill:rgb(82,93,122);fill-rule:nonzero;"/>
                    </g>
                </g>
            </g>
            <g transform="matrix(1,0,0,1,289.12,265.962)">
                <path d="M0,-14.33C7.914,-14.33 14.329,-7.915 14.329,0L0,0L0,-14.33Z" style="fill:rgb(86,64,139);fill-rule:nonzero;"/>
            </g>
            <g transform="matrix(1,0,0,1,302.185,251.632)">
                <path d="M0,14.33L1.265,14.33C1.265,6.416 -5.151,0 -13.065,0L-13.065,1.265C-6.113,1.845 -0.58,7.378 0,14.33" style="fill:rgb(120,102,162);fill-rule:nonzero;"/>
            </g>
            <g transform="matrix(1,0,0,1,287.841,252.912)">
                <path d="M0,28.659C-7.913,28.659 -14.329,22.244 -14.329,14.33C-14.329,6.416 -7.913,0 0,0L0,14.33L14.329,14.33C14.329,22.244 7.914,28.659 0,28.659" style="fill:rgb(151,111,228);fill-rule:nonzero;"/>
            </g>
            <g>
                <g opacity="0.300003">
                    <g transform="matrix(1,0,0,1,418.176,205.707)">
                        <path d="M0,-1.81L1.227,2.509C1.292,2.736 1.464,2.91 1.678,2.983C1.75,3.007 1.826,3.02 1.905,3.02C2.356,3.02 2.691,2.602 2.592,2.161L2.523,1.854L2.522,1.854L1.881,-0.997L2.39,-1.047L3.812,3.496C3.904,3.788 4.174,3.986 4.479,3.986C4.954,3.986 5.291,3.523 5.145,3.072L3.762,-1.2L4.474,-1.149L6.245,4.024C6.342,4.306 6.606,4.495 6.904,4.495C7.396,4.495 7.733,3.997 7.55,3.54L5.593,-1.352L6.203,-1.251L7.728,1.749L7.83,3.325C8.465,3.297 8.965,2.773 8.965,2.138L8.965,1.546L7.446,-1.641L2.644,-6.305L-1.648,-6.305L-0.458,-5.318L0,-1.81Z" style="fill:rgb(25,16,58);fill-rule:nonzero;"/>
                    </g>
                </g>
            </g>
            <g>
                <g opacity="0.300003">
                    <g transform="matrix(1,0,0,1,433.843,237.187)">
                        <clipPath id="_clip4">
                            <rect x="-6.383" y="-30.745" width="6.383" height="49.048" clip-rule="nonzero"/>
                        </clipPath>
                        <g clip-path="url(#_clip4)">
                            <path d="M0,-12.442L0,-25.138L-5.774,-30.745L-5.581,-29.986C-5.29,-28.892 -5.192,-27.756 -5.29,-26.628L-5.956,-17.276C-5.545,-17.499 -5.091,-17.677 -4.603,-17.82L-4.714,-16.566C-4.695,-16.571 -4.674,-16.573 -4.655,-16.578L-6.359,7.521C-6.575,10.576 -5.357,13.558 -3.064,15.589L0,18.303L0,-12.442Z" style="fill:rgb(25,16,58);fill-rule:nonzero;"/>
                        </g>
                    </g>
                </g>
            </g>
            <g transform="matrix(-1,-0,-0,1,889.146,182.589)">
                <rect x="441.59" y="91.642" width="5.966" height="3.627" style="fill:rgb(246,246,246);"/>
            </g>
            <g transform="matrix(-0.669974,0.742385,0.742385,0.669974,455.955,271.66)">
                <rect x="-6.327" y="-2.814" width="5.966" height="3.627" style="fill:rgb(246,246,246);"/>
            </g>
            <g transform="matrix(1,0,0,1,457.453,274.231)">
                <path d="M0,-56.809L-1.572,-22.237C-1.608,-21.426 -1.76,-20.625 -2.023,-19.858L-8.813,0L-16.219,0L-12.285,-24.046L-12.863,-56.809L0,-56.809Z" style="fill:rgb(86,64,139);fill-rule:nonzero;"/>
            </g>
            <g>
                <g opacity="0.300003">
                    <g transform="matrix(1,0,0,1,445.625,273.912)">
                        <path d="M0,-56.171L-1.035,-56.49L-0.457,-23.727L-4.391,0.319L-2.391,0.319L1.543,-23.727L0,-56.171Z" style="fill:rgb(43,32,70);fill-rule:nonzero;"/>
                    </g>
                </g>
            </g>
            <g transform="matrix(1,0,0,1,459.402,281.484)">
                <path d="M0,-16.117L3.356,-13.219L-5.339,0L-9.559,0L-9.559,-0.558C-9.559,-1.577 -8.747,-2.412 -7.728,-2.44L-6.559,-3.609L-6.152,-10.473L-5.796,-10.931L-2.847,-10.728L-0.279,-14.029L-0.483,-15.456L0,-16.117Z" style="fill:rgb(86,64,139);fill-rule:nonzero;"/>
            </g>
            <g transform="matrix(1,0,0,1,461.468,281.484)">
                <path d="M0,-14.333L-8.624,-1.22L-11.499,-1.22C-11.577,-1.013 -11.624,-0.792 -11.624,-0.558L-11.624,0L-7.404,0L1.29,-13.219L0,-14.333Z" style="fill:rgb(43,32,70);fill-rule:nonzero;"/>
            </g>
            <g transform="matrix(-1,-0,-0,1,889.145,191.843)">
                <rect x="440.166" y="88.015" width="8.813" height="1.627" style="fill:rgb(43,32,70);"/>
            </g>
            <g transform="matrix(1,0,0,1,444.395,279.858)">
                <path d="M0,-4C-2.102,-4 -3.806,-2.296 -3.806,-0.194L-3.806,0L3.806,0L3.806,-0.194C3.806,-2.296 2.102,-4 0,-4" style="fill:rgb(86,64,139);fill-rule:nonzero;"/>
            </g>
            <g>
                <g opacity="0.300003">
                    <g transform="matrix(-0.66631,-0.745675,-0.745675,0.66631,445.263,256.352)">
                        <clipPath id="_clip5">
                            <path d="M-8.074,10.076L-14.733,2.624L-1.92,-8.825L4.739,-1.373L-8.074,10.076Z" clip-rule="nonzero"/>
                        </clipPath>
                        <g clip-path="url(#_clip5)">
                            <path d="M-8.793,-2.684L3.568,-2.684L-3.273,5.787L-12.918,4.655L-8.793,-2.684Z" style="fill:rgb(43,32,70);fill-rule:nonzero;"/>
                        </g>
                    </g>
                </g>
            </g>
            <g transform="matrix(1,0,0,1,432.912,270.3)">
                <path d="M0,-52.878L-1.928,-25.591C-2.144,-22.536 -0.927,-19.554 1.366,-17.524L21.151,0L25.625,-5.153L9.946,-22.7L12.474,-40.676L13.287,-52.878L0,-52.878Z" style="fill:rgb(86,64,139);fill-rule:nonzero;"/>
            </g>
            <g>
                <g opacity="0.300003">
                    <g transform="matrix(1,0,0,1,435.905,234.131)">
                        <clipPath id="_clip6">
                            <rect x="-4.945" y="-16.71" width="23.411" height="52.878" clip-rule="nonzero"/>
                        </clipPath>
                        <g clip-path="url(#_clip6)">
                            <path d="M0,19.458C-2.293,17.427 -3.51,14.446 -3.294,11.391L-1.366,-15.896L10.24,-15.896L10.294,-16.71L-2.993,-16.71L-4.921,10.577C-5.137,13.632 -3.92,16.614 -1.627,18.645L18.158,36.168L18.466,35.813L0,19.458Z" style="fill:rgb(82,93,122);fill-rule:nonzero;"/>
                        </g>
                    </g>
                </g>
            </g>
            <g transform="matrix(1,0,0,1,470.629,208.677)">
                <path d="M0,-26.778L2.375,-25.48C4.05,-24.565 4.513,-22.37 3.35,-20.856L-7.979,-6.118L-13.761,0L-14.307,-6.04L-13.818,-9.234L-11.641,-9.503L-4.801,-19.315L-5.338,-19.702L0,-26.778Z" style="fill:white;fill-rule:nonzero;"/>
            </g>
            <g>
                <g opacity="0.149994">
                    <g transform="matrix(1,0,0,1,473.004,207.379)">
                        <clipPath id="_clip7">
                            <rect x="-16.245" y="-25.48" width="17.864" height="26.777" clip-rule="nonzero"/>
                        </clipPath>
                        <g clip-path="url(#_clip7)">
                            <path d="M0,-24.182L-2.375,-25.48L-3.067,-24.562L-1.627,-23.775C0.048,-22.86 0.511,-20.665 -0.653,-19.151L-11.981,-4.413L-16.245,0.098L-16.137,1.298L-10.354,-4.819L0.974,-19.558C2.138,-21.072 1.675,-23.267 0,-24.182" style="fill:rgb(82,93,122);fill-rule:nonzero;"/>
                        </g>
                    </g>
                </g>
            </g>
            <g transform="matrix(1,0,0,1,422.49,210.201)">
                <path d="M0,-16.963L1.118,-14.693L4.22,-12.71L8.898,-5.745C8.184,-5.477 7.381,-5.741 6.964,-6.378L6.813,-6.609L6.406,-6.609L8.152,-2.949L8.152,-2.356C8.152,-1.721 7.652,-1.197 7.016,-1.169L6.915,-2.745L5.389,-5.745L4.779,-5.847L6.736,-0.954C6.919,-0.497 6.582,0 6.09,0C5.793,0 5.528,-0.189 5.432,-0.47L3.661,-5.643L2.949,-5.694L4.331,-1.422C4.477,-0.971 4.14,-0.508 3.666,-0.508C3.36,-0.508 3.09,-0.706 2.999,-0.998L1.576,-5.542L1.068,-5.491L1.778,-2.333C1.877,-1.893 1.542,-1.474 1.091,-1.474C0.776,-1.474 0.5,-1.683 0.414,-1.986L-0.814,-6.304L-1.271,-9.813L-2.928,-11.185L-6.305,-11.185C-7.231,-11.185 -7.983,-11.936 -7.983,-12.863L-7.983,-13.24C-7.983,-13.891 -7.802,-14.529 -7.461,-15.084L-6.307,-16.963L0,-16.963Z" style="fill:white;fill-rule:nonzero;"/>
            </g>
            <g>
                <g opacity="0.149994">
                    <g transform="matrix(1,0,0,1,424.124,194.563)">
                        <path d="M0,12.839L-1.227,8.521L-1.54,6.125C-1.633,5.41 -1.994,4.756 -2.549,4.296C-3.061,3.872 -3.705,3.64 -4.371,3.64L-6.719,3.64C-7.645,3.64 -8.396,2.888 -8.396,1.962L-8.396,1.584C-8.396,0.933 -8.216,0.295 -7.875,-0.259L-7.22,-1.325L-7.941,-1.325L-9.095,0.554C-9.436,1.109 -9.617,1.747 -9.617,2.398L-9.617,2.775C-9.617,3.702 -8.865,4.453 -7.939,4.453L-4.562,4.453L-2.905,5.826L-2.448,9.334L-1.22,13.653C-1.134,13.955 -0.858,14.164 -0.543,14.164C-0.092,14.164 0.243,13.746 0.144,13.305L0.075,12.998C0.046,12.948 0.017,12.897 0,12.839" style="fill:rgb(82,93,122);fill-rule:nonzero;"/>
                    </g>
                    <g transform="matrix(0.430607,0.90254,0.90254,-0.430607,431.276,202.709)">
                        <path d="M-0.436,-1.077L1.524,-1.077C1.574,-0.943 1.612,-0.801 1.625,-0.653L-0.374,-0.947L-0.436,-1.077Z" style="fill:rgb(82,93,122);fill-rule:nonzero;"/>
                    </g>
                </g>
            </g>
            <g>
                <g opacity="0.300003">
                    <g transform="matrix(1,0,0,1,444.59,224.976)">
                        <clipPath id="_clip8">
                            <rect x="-11.961" y="-7.554" width="24.824" height="5.424" clip-rule="nonzero"/>
                        </clipPath>
                        <g clip-path="url(#_clip8)">
                            <path d="M0,-7.554L-11.677,-7.554L-11.961,-4.354C-5.532,-6.327 7.372,0 12.689,-2.908L12.863,-7.554L1.61,-7.554L0,-7.554Z" style="fill:rgb(43,32,70);fill-rule:nonzero;"/>
                        </g>
                    </g>
                </g>
            </g>
            <g transform="matrix(1,0,0,1,434.415,221.244)">
                <path d="M0,-47.541L-7.228,-44.008C-8.204,-43.531 -9.027,-42.788 -9.601,-41.865L-18.232,-28.006L-11.925,-28.006L-11.3,-26.736L-5.741,-26.152L-2.653,-14.043C-2.363,-12.949 -2.264,-11.813 -2.363,-10.685L-3.028,-1.333C3.308,-4.778 19.69,2.109 24.123,-3.009L22.545,-11.042C22.315,-12.635 22.176,-18.732 22.348,-20.332L24.123,-30.261L29.546,-32.024L30.766,-32.024L36.597,-39.752L21.297,-47.708C20.208,-48.274 19.022,-48.63 17.801,-48.757L9.182,-49.65L0,-47.541Z" style="fill:rgb(98,63,233);fill-rule:nonzero;"/>
            </g>
            <g transform="matrix(1,0,0,1,424.813,184.64)">
                <path d="M0,-4.448C0.575,-5.371 1.397,-6.113 2.374,-6.591L9.601,-10.124L18.784,-12.233L27.402,-11.339C28.623,-11.213 29.809,-10.857 30.898,-10.291L45.757,-2.564L46.198,-3.148L30.898,-11.104C29.809,-11.67 28.623,-12.026 27.402,-12.153L18.784,-13.046L9.601,-10.937L2.374,-7.404C1.397,-6.927 0.575,-6.184 0,-5.262L-8.631,8.598L-8.124,8.598L0,-4.448Z" style="fill:rgb(129,101,237);fill-rule:nonzero;"/>
            </g>
            <g transform="matrix(1,0,0,1,443.597,178.507)">
                <path d="M0,-6.913L-3.595,2.044L-4.4,0.56L-9.182,-4.804L-9.649,-7.001L-0.434,-8.957L0,-6.913Z" style="fill:white;fill-rule:nonzero;"/>
            </g>
            <g transform="matrix(1,0,0,1,444.18,161.148)">
                <path d="M0,1.019C-0.161,0.682 -0.394,0.384 -0.574,0.057C-0.997,-0.714 -0.948,-1.447 -0.993,-2.291C-1.027,-2.938 -1.345,-3.191 -1.796,-3.653C-1.958,-3.82 -2.132,-3.993 -2.358,-4.051C-2.689,-4.136 -3.027,-3.948 -3.294,-3.735C-3.658,-3.446 -4.033,-3.111 -4.474,-2.951C-4.929,-2.786 -5.458,-2.786 -5.822,-2.423C-6.218,-2.029 -6.206,-1.383 -6.068,-0.842C-5.985,-0.521 -5.891,-0.061 -5.626,0.14C-5.31,0.382 -4.714,0.425 -4.334,0.41C-4.131,0.402 -3.914,0.374 -3.735,0.471C-3.532,0.58 -3.436,0.822 -3.424,1.052C-3.389,1.727 -3.846,2.306 -3.577,2.985C-3.285,3.723 -2.841,3.59 -2.245,3.787C-2.21,3.799 -2.177,3.813 -2.145,3.829C-1.649,4.081 -1.56,4.845 -1.029,4.991C-0.434,5.155 0.043,4.348 0.137,3.877C0.299,3.069 0.36,1.771 0,1.019" style="fill:rgb(86,64,139);fill-rule:nonzero;"/>
            </g>
            <g>
                <g opacity="0.149994">
                    <g transform="matrix(1,0,0,1,443.175,175.018)">
                        <clipPath id="_clip9">
                            <rect x="-9.227" y="-5.469" width="9.227" height="5.374" clip-rule="nonzero"/>
                        </clipPath>
                        <g clip-path="url(#_clip9)">
                            <path d="M0,-5.411L-0.012,-5.469L-9.227,-3.513L-8.658,-0.834C-7.524,-0.203 -6.174,0.058 -4.796,-0.186C-2.142,-0.657 -0.233,-2.85 0,-5.411" style="fill:rgb(82,93,122);fill-rule:nonzero;"/>
                        </g>
                    </g>
                </g>
            </g>
            <g transform="matrix(1,0,0,1,442.643,171.656)">
                <path d="M0,-9.778L0.879,-4.822C1.443,-1.642 -0.677,1.392 -3.857,1.956C-7.036,2.52 -10.071,0.4 -10.635,-2.78L-11.514,-7.736L-12.001,-10.773L-0.917,-12.298L0,-9.778Z" style="fill:white;fill-rule:nonzero;"/>
            </g>
            <g>
                <g opacity="0.149994">
                    <g transform="matrix(1,0,0,1,442.73,163.042)">
                        <path d="M0,-0.671C-0.072,-0.937 -0.187,-1.369 -0.259,-1.636L-0.485,-2.257C-0.615,-2.564 -0.778,-2.856 -1.018,-3.084C-1.274,-3.327 -1.594,-3.468 -1.936,-3.556L-12.089,-2.159L-11.634,1.187C-9.677,1.23 -7.902,0.776 -6.007,0.132C-5.488,-0.045 -3.719,-0.829 -3.451,-1.397C-3.298,-1.378 -3.151,-1.341 -3.014,-1.266C-2.418,-0.934 -2.358,0.203 -2.281,0.796C-2.092,2.238 -1.719,2.374 -1.245,2.645C-1.068,2.746 -0.979,1.379 -0.923,0.594C-0.64,0.597 0.127,1.784 0.177,1.948C0.266,2.24 0.325,2.649 0.501,2.885C0.538,2.786 0.556,2.654 0.565,2.517L0,-0.671Z" style="fill:rgb(82,93,122);fill-rule:nonzero;"/>
                    </g>
                </g>
            </g>
            <g transform="matrix(1,0,0,1,440.708,161.438)">
                <path d="M0,-4.738C-0.262,-5.317 -1.154,-5.573 -1.714,-5.686C-3.33,-6.012 -4.99,-5.931 -6.623,-5.792C-7.903,-5.683 -9.028,-5.069 -10.327,-4.935C-11.24,-4.841 -12.173,-4.954 -13.039,-5.26C-13.294,-5.35 -13.544,-5.457 -13.785,-5.579C-13.861,-5.618 -13.945,-5.66 -14.028,-5.639C-14.176,-5.602 -14.206,-5.407 -14.206,-5.254C-14.202,-3.747 -14.179,-2.535 -13.478,-1.166C-12.931,-0.099 -11.982,0.797 -10.822,1.098C-10.368,1.216 -9.896,1.242 -9.428,1.248C-7.531,1.274 -5.798,1.012 -3.953,0.385C-3.434,0.208 -2.42,0.034 -1.935,-0.223C-0.996,-0.719 -0.927,-1.565 -0.48,-2.528C-0.213,-3.102 0.294,-4.089 0,-4.738" style="fill:rgb(86,64,139);fill-rule:nonzero;"/>
            </g>
            <g transform="matrix(1,0,0,1,426.909,159.002)">
                <path d="M0,-2.004C0,-2.157 0.03,-2.352 0.178,-2.389C0.261,-2.41 0.345,-2.369 0.421,-2.33C0.662,-2.207 0.911,-2.1 1.167,-2.01C2.032,-1.705 2.966,-1.591 3.879,-1.685C5.178,-1.82 6.303,-2.434 7.583,-2.543C9.215,-2.681 10.875,-2.762 12.492,-2.436C12.903,-2.354 13.492,-2.192 13.88,-1.883C13.877,-2.031 13.857,-2.174 13.799,-2.302C13.537,-2.881 12.645,-3.137 12.085,-3.25C10.469,-3.576 8.809,-3.495 7.176,-3.356C5.896,-3.247 4.771,-2.633 3.472,-2.499C2.559,-2.405 1.626,-2.518 0.76,-2.824C0.505,-2.914 0.255,-3.02 0.014,-3.143C-0.062,-3.182 -0.146,-3.224 -0.229,-3.203C-0.377,-3.166 -0.407,-2.971 -0.407,-2.817C-0.403,-1.311 -0.38,-0.099 0.321,1.27C0.374,1.373 0.434,1.473 0.494,1.572C0.021,0.405 0.004,-0.687 0,-2.004" style="fill:rgb(187,179,209);fill-rule:nonzero;"/>
            </g>
            <g transform="matrix(1,0,0,1,443.258,160.424)">
                <path d="M0,3.237C-0.075,2.87 -0.187,2.573 -0.227,2.199C-0.321,1.307 -0.561,0.409 -0.851,-0.437C-1.007,-0.893 -1.197,-1.355 -1.546,-1.686C-2.076,-2.189 -2.864,-2.292 -3.594,-2.298C-4.477,-2.305 -5.064,-2.069 -5.632,-1.392C-6.066,-0.874 -5.962,0.004 -5.269,0.284C-4.724,0.504 -4.056,0.254 -3.543,0.539C-2.946,0.871 -2.938,1.61 -2.809,2.194C-2.619,3.052 -2.403,3.918 -2.096,4.745C-2.026,4.937 -1.948,5.13 -1.813,5.283C-1.678,5.436 -1.473,5.542 -1.272,5.507C-1.199,5.403 -1.139,5.289 -1.101,5.168C-0.864,4.418 -1.486,3.646 -1.429,2.861C-1.146,2.863 -0.83,2.742 -0.6,2.906C-0.46,3.006 -0.401,3.182 -0.351,3.346C-0.262,3.638 -0.203,4.047 -0.027,4.283C0.075,4.014 0.06,3.53 0,3.237" style="fill:rgb(86,64,139);fill-rule:nonzero;"/>
            </g>
            <g>
                <g opacity="0.300003">
                    <g transform="matrix(0.835911,-0.548865,-0.548865,-0.835911,441.183,172.356)">
                        <clipPath id="_clip10">
                            <path d="M-7.235,-8.868L-2.757,-11.808L3.809,-1.807L-0.668,1.133L-7.235,-8.868Z" clip-rule="nonzero"/>
                        </clipPath>
                        <g clip-path="url(#_clip10)">
                            <path d="M2.659,-1.807L3.809,-1.807C3.809,-1.807 -0.075,-7.811 -3.34,-11.424C-3.34,-11.424 -2.995,-7.552 -5.484,-6.201L2.659,-1.807Z" style="fill:rgb(82,93,122);fill-rule:nonzero;"/>
                        </g>
                    </g>
                </g>
            </g>
            <g>
                <g opacity="0.300003">
                    <g transform="matrix(-0.938492,-0.345302,-0.345302,0.938492,436.659,183.174)">
                        <clipPath id="_clip11">
                            <path d="M3.574,1.225L-2.353,-0.956L0.585,-8.94L6.512,-6.76L3.574,1.225Z" clip-rule="nonzero"/>
                        </clipPath>
                        <g clip-path="url(#_clip11)">
                            <path d="M5.362,-6.76L6.512,-6.76C6.512,-6.76 3.213,-3.113 -0.254,-0.183C-0.254,-0.183 0.049,-3.599 -0.964,-4.732L5.362,-6.76Z" style="fill:rgb(82,93,122);fill-rule:nonzero;"/>
                        </g>
                    </g>
                </g>
            </g>
            <g transform="matrix(0.994727,0.102555,0.102555,-0.994727,444.141,171.715)">
                <path d="M-0.567,0.064L1.218,0.064L1.716,-10.716C-0.045,-8.988 -3.211,-9.213 -3.211,-9.213L-0.567,0.064Z" style="fill:rgb(161,140,242);fill-rule:nonzero;"/>
            </g>
            <g transform="matrix(1,0,0,1,440.432,181.868)">
                <path d="M0,-0.001C0,0.236 -0.192,0.429 -0.43,0.429C-0.667,0.429 -0.859,0.236 -0.859,-0.001C-0.859,-0.238 -0.667,-0.43 -0.43,-0.43C-0.192,-0.43 0,-0.238 0,-0.001" style="fill:rgb(86,64,139);fill-rule:nonzero;"/>
            </g>
            <g transform="matrix(1,0,0,1,441.195,185.059)">
                <path d="M0,0C0,0.237 -0.192,0.429 -0.429,0.429C-0.667,0.429 -0.859,0.237 -0.859,0C-0.859,-0.237 -0.667,-0.429 -0.429,-0.429C-0.192,-0.429 0,-0.237 0,0" style="fill:rgb(86,64,139);fill-rule:nonzero;"/>
            </g>
            <g transform="matrix(1,0,0,1,441.625,188.323)">
                <path d="M0,0.001C0,0.238 -0.192,0.43 -0.429,0.43C-0.667,0.43 -0.859,0.238 -0.859,0.001C-0.859,-0.236 -0.667,-0.429 -0.429,-0.429C-0.192,-0.429 0,-0.236 0,0.001" style="fill:rgb(86,64,139);fill-rule:nonzero;"/>
            </g>
            <g transform="matrix(-0.898462,0.439051,0.439051,0.898462,439.294,181.559)">
                <path d="M0.934,-9.2L2.85,-9.2L2.814,-0.119C0.478,-2.752 -1.008,-2.282 -1.008,-2.282L0.934,-9.2Z" style="fill:rgb(161,140,242);fill-rule:nonzero;"/>
            </g>
            <g>
                <g opacity="0.300003">
                    <g transform="matrix(1,0,0,1,286.178,198.016)">
                        <path d="M0,16.567C-0.076,16.635 -0.145,16.711 -0.205,16.792C-0.325,16.954 -0.411,17.139 -0.458,17.335C-0.481,17.433 -0.495,17.534 -0.498,17.636L-0.645,18.476C-0.664,18.585 -0.659,18.692 -0.634,18.793C-0.576,19.026 -0.402,19.209 -0.176,19.302C-0.111,19.329 -0.047,19.36 0.027,19.368L0.505,19.419L0.422,23.742C0.421,23.838 0.439,23.93 0.473,24.014C0.575,24.265 0.821,24.443 1.11,24.443C1.205,24.443 1.295,24.424 1.378,24.389C1.46,24.354 1.534,24.304 1.596,24.241C1.721,24.117 1.798,23.945 1.798,23.755L1.798,21.158L4.391,21.158C4.662,21.158 4.925,21.061 5.131,20.884C5.383,20.668 5.528,20.353 5.528,20.021L5.528,15.732L3.89,-4.13L-0.879,-7.876L-0.879,0.153L-0.41,0.478L1.798,14.299L0.819,15.835L0,16.567Z" style="fill:rgb(25,16,58);fill-rule:nonzero;"/>
                    </g>
                </g>
            </g>
            <g transform="matrix(1,0,0,1,282.245,222.458)">
                <path d="M0,-33.147L5.822,-28.572L7.46,-8.711L7.46,-4.422C7.46,-4.09 7.315,-3.774 7.063,-3.558C6.857,-3.382 6.594,-3.284 6.323,-3.284L3.73,-3.284L3.73,-0.688C3.73,-0.308 3.422,0 3.043,0C2.658,0 2.347,-0.316 2.355,-0.701L2.438,-5.024L1.96,-5.075C1.52,-5.122 1.211,-5.531 1.288,-5.966L1.434,-6.806C1.447,-7.216 1.627,-7.603 1.932,-7.876L2.751,-8.608L3.73,-10.144L1.522,-23.965L-4.143,-27.89L0,-33.147Z" style="fill:white;fill-rule:nonzero;"/>
            </g>
            <g>
                <g opacity="0.149994">
                    <g transform="matrix(1,0,0,1,285.934,195.699)">
                        <clipPath id="_clip12">
                            <rect x="-7.831" y="-6.388" width="9.371" height="33.147" clip-rule="nonzero"/>
                        </clipPath>
                        <g clip-path="url(#_clip12)">
                            <path d="M0,20.371C0,20.371 1.785,16.759 1.512,14.947L-0.561,1.189L-6.226,-2.736L-3.479,-6.223L-3.689,-6.388L-7.832,-1.131L-2.167,2.794L0.041,16.615L-0.938,18.151L-1.756,18.883C-2.062,19.156 -2.242,19.543 -2.255,19.953L-2.401,20.793C-2.477,21.228 -2.169,21.637 -1.729,21.684L-1.251,21.735L-1.334,26.058C-1.341,26.443 -1.031,26.759 -0.646,26.759C-0.267,26.759 0.041,26.451 0.041,26.071L0.041,23.474L0,20.371Z" style="fill:rgb(82,93,122);fill-rule:nonzero;"/>
                        </g>
                    </g>
                </g>
            </g>
            <g transform="matrix(1,0,0,1,228.803,210.062)">
                <path d="M0,-22.534L-20.899,-4.177L-26.325,-1.535L-29.652,-1.535C-30.076,-1.535 -30.42,-1.192 -30.42,-0.768C-30.42,-0.344 -30.076,0 -29.652,0L-20.164,0C-19.348,0 -18.592,-0.424 -18.167,-1.12L-17.725,-1.843L-1.14,-13.514L5.215,-17.204L0,-22.534Z" style="fill:white;fill-rule:nonzero;"/>
            </g>
            <g>
                <g opacity="0.149994">
                    <g transform="matrix(1,0,0,1,227.664,207.098)">
                        <path d="M0,-12.557L-16.819,0.07C-16.819,0.07 -18.209,1.76 -19.024,1.76L-25.185,2.23L-28.513,2.23C-28.937,2.23 -29.281,1.772 -29.281,2.196C-29.281,2.62 -28.937,2.963 -28.513,2.963L-19.024,2.963C-18.209,2.963 -17.452,2.539 -17.027,1.844L-16.585,1.121L0,-10.551L6.355,-14.241L5.103,-15.52L0,-12.557Z" style="fill:rgb(82,93,122);fill-rule:nonzero;"/>
                    </g>
                </g>
            </g>
            <g transform="matrix(1,0,0,1,251.494,209.174)">
                <path d="M0,-35.764L-8.978,-32.565C-10.135,-32.152 -11.217,-31.553 -12.181,-30.791L-23.148,-22.114L-16.937,-15.766C-16.937,-15.766 -10.579,-19.488 -10.316,-18.9C-9.636,-17.374 -9.173,-5.323 -9.173,-5.323L-9.992,0L16.532,0L15.986,-5.596L18.555,-17.814L26.314,-14.099L31.25,-20.496L20.192,-30.979C19.424,-31.707 18.54,-32.3 17.575,-32.733L10.825,-35.764L0,-35.764Z" style="fill:rgb(86,64,139);fill-rule:nonzero;"/>
            </g>
            <g transform="matrix(1,0,0,1,239.313,183.027)">
                <path d="M0,-3.038C0.964,-3.8 2.046,-4.4 3.203,-4.812L12.181,-8.011L23.006,-8.011L29.756,-4.98C30.721,-4.547 31.606,-3.954 32.373,-3.227L42.716,6.579L43.431,5.652L32.373,-4.832C31.606,-5.559 30.721,-6.152 29.756,-6.585L23.006,-9.617L12.181,-9.617L3.203,-6.417C2.046,-6.005 0.964,-5.405 0,-4.643L-10.967,4.034L-10.082,4.939L0,-3.038Z" style="fill:rgb(120,102,162);fill-rule:nonzero;"/>
            </g>
            <g>
                <g opacity="0.149994">
                    <g transform="matrix(1,0,0,1,241.826,190.824)">
                        <path d="M0,-1.338C-0.262,-1.926 -8.874,0.578 -8.874,0.578L-13.278,-3.923L-13.48,-3.763L-7.269,2.585C-7.269,2.585 -3.845,-0.256 -0.648,-0.549C-0.648,-0.549 0.149,-1.005 0,-1.338" style="fill:rgb(25,16,58);fill-rule:nonzero;"/>
                    </g>
                    <g transform="matrix(-1,-0,-0,1,241.81,209.174)">
                        <path d="M-25.909,-2.006L-0.002,-2.006L0.307,0L-26.216,0L-25.909,-2.006Z" style="fill:rgb(25,16,58);fill-rule:nonzero;"/>
                    </g>
                </g>
            </g>
            <g transform="matrix(1,0,0,1,256.834,174.434)">
                <path d="M0,8.446C-2.431,8.446 -4.402,6.475 -4.402,4.044L-4.402,0L4.402,0L4.402,4.044C4.402,6.475 2.431,8.446 0,8.446" style="fill:white;fill-rule:nonzero;"/>
            </g>
            <g transform="matrix(1,0,0,1,263.814,166.405)">
                <path d="M0,-1.548C-0.053,-2.03 -0.068,-3.005 -0.164,-3.48C-0.36,-4.441 -1.054,-5.51 -1.739,-6.213C-2.307,-6.797 -2.086,-6.741 -2.755,-7.206C-3.932,-8.024 -5.951,-8.349 -7.378,-8.262C-7.985,-8.225 -8.585,-8.07 -9.163,-7.896C-9.297,-7.856 -10.778,-6.939 -10.507,-6.802C-11.149,-7.126 -11.946,-6.811 -12.481,-6.331C-13.346,-5.556 -13.782,-4.423 -14.188,-3.334C-14.382,-2.815 -14.576,-2.296 -14.769,-1.777C-14.944,-1.308 -15.119,-0.786 -14.935,-0.321C-14.854,-0.116 -14.71,0.057 -14.62,0.257C-14.386,0.778 -14.553,1.378 -14.593,1.948C-14.65,2.77 -14.403,3.6 -13.942,4.279C-13.505,4.921 -12.804,5.127 -12.339,5.656L-12.577,5.58C-10.621,6.801 -8.143,6.668 -5.844,6.493C-4.754,6.411 -3.665,6.328 -2.576,6.246C-1.991,6.202 -1.345,6.129 -0.952,5.694C-0.551,5.25 -0.552,4.586 -0.358,4.02C-0.102,3.269 0.513,2.671 0.718,1.904C1.03,0.74 0.132,-0.35 0,-1.548" style="fill:rgb(86,64,139);fill-rule:nonzero;"/>
            </g>
            <g transform="matrix(1,0,0,1,249.25,169.132)">
                <path d="M0,-1.057C-0.011,-0.964 -0.023,-0.871 -0.029,-0.779C-0.048,-0.518 -0.025,-0.257 0.015,0C0.059,-0.361 0.087,-0.72 0,-1.057" style="fill:rgb(120,102,162);fill-rule:nonzero;"/>
            </g>
            <g transform="matrix(1,0,0,1,248.926,160.252)">
                <path d="M0,5.921C0.037,5.806 0.077,5.692 0.119,5.581C0.312,5.061 0.506,4.542 0.7,4.023C1.106,2.935 1.542,1.801 2.407,1.026C2.942,0.546 3.739,0.231 4.381,0.556C4.109,0.419 5.591,-0.499 5.725,-0.539C6.303,-0.712 6.903,-0.868 7.51,-0.905C8.937,-0.992 10.956,-0.666 12.133,0.151C12.802,0.616 12.581,0.56 13.149,1.144C13.834,1.847 14.528,2.916 14.723,3.877C14.82,4.352 14.835,5.327 14.888,5.809C14.976,6.608 15.399,7.36 15.582,8.117C15.588,8.097 15.601,8.078 15.606,8.057C15.918,6.893 15.02,5.803 14.888,4.605C14.835,4.123 14.82,3.148 14.723,2.673C14.528,1.712 13.834,0.644 13.149,-0.06C12.581,-0.644 12.802,-0.588 12.133,-1.053C10.956,-1.87 8.937,-2.196 7.51,-2.109C6.903,-2.072 6.303,-1.916 5.725,-1.743C5.591,-1.703 4.109,-0.785 4.381,-0.648C3.739,-0.973 2.942,-0.658 2.407,-0.178C1.542,0.597 1.106,1.731 0.7,2.819C0.506,3.338 0.312,3.858 0.119,4.377C-0.056,4.846 -0.231,5.368 -0.047,5.833C-0.035,5.864 -0.015,5.891 0,5.921" style="fill:rgb(120,102,162);fill-rule:nonzero;"/>
            </g>
            <g>
                <g opacity="0.149994">
                    <g transform="matrix(1,0,0,1,252.431,176.703)">
                        <path d="M0,0.659C0.962,2.03 2.551,2.928 4.353,2.928L4.571,2.928C6.301,2.928 7.834,2.098 8.805,0.818L8.805,-2.269L0,-2.269L0,0.659Z" style="fill:rgb(82,93,122);fill-rule:nonzero;"/>
                    </g>
                </g>
            </g>
            <g transform="matrix(1,0,0,1,256.893,165.425)">
                <path d="M0,13.002C-2.997,13.002 -5.426,10.573 -5.426,7.576L-5.426,0L5.426,0L5.426,7.576C5.426,10.573 2.997,13.002 0,13.002" style="fill:white;fill-rule:nonzero;"/>
            </g>
            <g>
                <g opacity="0.149994">
                    <g transform="matrix(1,0,0,1,262.319,166.48)">
                        <path d="M0,1.408L0,-1.056L-10.148,-1.056C-10.285,-0.994 -10.422,-0.932 -10.559,-0.87C-10.657,-0.826 -10.755,-0.78 -10.852,-0.734L-10.852,2.464C-9.79,2.025 -8.93,1.086 -8.111,0.232C-8.053,0.173 -7.991,0.111 -7.91,0.093C-7.809,0.071 -7.707,0.125 -7.616,0.175C-6.066,1.028 -4.261,1.261 -2.502,1.45C-1.681,1.539 -0.788,1.597 0,1.408" style="fill:rgb(82,93,122);fill-rule:nonzero;"/>
                    </g>
                </g>
            </g>
            <g transform="matrix(1,0,0,1,263.661,165.153)">
                <path d="M0,0.523C-0.513,-0.597 -1.598,-1.377 -2.762,-1.779C-3.927,-2.181 -5.177,-2.25 -6.409,-2.278C-7.037,-2.293 -7.669,-2.297 -8.286,-2.18C-9.034,-2.039 -9.736,-1.723 -10.43,-1.41C-10.921,-1.189 -11.411,-0.967 -11.901,-0.746C-12.361,-0.539 -12.84,-0.316 -13.146,0.086C-13.691,0.802 -13.504,1.824 -13.198,2.67L-13.007,2.82C-11.548,2.627 -10.472,1.418 -9.453,0.356C-9.395,0.297 -9.333,0.235 -9.252,0.217C-9.15,0.195 -9.049,0.249 -8.958,0.299C-7.408,1.152 -5.603,1.385 -3.844,1.574C-2.525,1.716 -1.02,1.783 -0.061,0.865C-0.017,0.823 0.028,0.776 0.041,0.716C0.054,0.651 0.028,0.584 0,0.523" style="fill:rgb(86,64,139);fill-rule:nonzero;"/>
            </g>
        </g>
    </g>
    <defs>
        <linearGradient id="_Linear1" x1="0" y1="0" x2="1" y2="0" gradientUnits="userSpaceOnUse" gradientTransform="matrix(314,0,0,169,171,213.5)"><stop offset="0" style="stop-color:rgb(0,239,255);stop-opacity:1"/><stop offset="1" style="stop-color:rgb(195,32,255);stop-opacity:1"/></linearGradient>
        <linearGradient id="_Linear2" x1="0" y1="0" x2="1" y2="0" gradientUnits="userSpaceOnUse" gradientTransform="matrix(1,0,0,-1,0,-4.00653e-06)"><stop offset="0" style="stop-color:rgb(98,63,233);stop-opacity:1"/><stop offset="1" style="stop-color:rgb(93,218,244);stop-opacity:1"/></linearGradient>
        <linearGradient id="_Linear3" x1="0" y1="0" x2="1" y2="0" gradientUnits="userSpaceOnUse" gradientTransform="matrix(1,0,0,-1,0,-1.3245e-06)"><stop offset="0" style="stop-color:rgb(86,64,139);stop-opacity:1"/><stop offset="1" style="stop-color:rgb(215,126,219);stop-opacity:1"/></linearGradient>
    </defs>
</svg>
