<?xml version="1.0" encoding="UTF-8" standalone="no"?>
<!DOCTYPE svg PUBLIC "-//W3C//DTD SVG 1.1//EN" "http://www.w3.org/Graphics/SVG/1.1/DTD/svg11.dtd">
<svg width="100%" height="100%" viewBox="0 0 368 198" version="1.1" xmlns="http://www.w3.org/2000/svg" xmlns:xlink="http://www.w3.org/1999/xlink" xml:space="preserve" xmlns:serif="http://www.serif.com/" style="fill-rule:evenodd;clip-rule:evenodd;stroke-linejoin:round;stroke-miterlimit:1.41421;">
    <g transform="matrix(1,0,0,1,-66.05,-85.75)">
        <g transform="matrix(1.17166,0,0,1.1716,-134.303,-65.3861)">
            <rect x="171" y="129" width="314" height="169" style="fill:url(#_Linear1);"/>
        </g>
        <g id="Graphics" transform="matrix(0.835443,0,0,0.835443,-24.5209,24.879)">
            <g transform="matrix(-1.13628,-29.5433,29.5433,-1.13628,213.744,277.689)">
                <path d="M0.988,-0.119C0.927,-0.143 0.855,-0.097 0.796,-0.131C0.777,-0.143 0.752,-0.167 0.741,-0.186C0.73,-0.206 0.735,-0.231 0.741,-0.255C0.744,-0.269 0.747,-0.284 0.747,-0.297C0.747,-0.305 0.746,-0.313 0.741,-0.319C0.737,-0.323 0.731,-0.325 0.725,-0.326C0.682,-0.336 0.634,-0.323 0.603,-0.291C0.568,-0.256 0.549,-0.192 0.496,-0.179C0.463,-0.17 0.381,-0.178 0.392,-0.229C0.395,-0.248 0.415,-0.261 0.422,-0.279C0.431,-0.302 0.417,-0.329 0.395,-0.34C0.373,-0.351 0.347,-0.349 0.324,-0.341C0.287,-0.328 0.258,-0.302 0.229,-0.277C0.17,-0.224 0.114,-0.19 0.075,-0.118C0.074,-0.117 0.073,-0.115 0.072,-0.113C0.042,-0.055 0.046,-0.024 0.07,0.034C0.092,0.087 0.119,0.139 0.155,0.184C0.202,0.241 0.266,0.286 0.338,0.298C0.354,0.3 0.372,0.301 0.386,0.292C0.405,0.279 0.409,0.252 0.401,0.23C0.394,0.209 0.378,0.192 0.364,0.174C0.357,0.167 0.351,0.159 0.349,0.15C0.347,0.14 0.35,0.129 0.359,0.125C0.372,0.118 0.387,0.131 0.397,0.143C0.418,0.172 0.43,0.198 0.449,0.227C0.473,0.264 0.503,0.298 0.542,0.32C0.58,0.341 0.629,0.347 0.668,0.328C0.68,0.322 0.692,0.314 0.699,0.303C0.713,0.284 0.713,0.258 0.709,0.235C0.705,0.211 0.697,0.188 0.695,0.165C0.692,0.109 0.732,0.088 0.783,0.091C0.817,0.093 0.85,0.106 0.885,0.109C0.945,0.115 1.011,0.088 1.038,0.034C1.046,0.019 1.05,0.003 1.051,-0.013C1.052,-0.057 1.029,-0.103 0.988,-0.119Z" style="fill:url(#_Linear2);fill-rule:nonzero;"/>
            </g>
            <g transform="matrix(1,0,0,1,0,174.322)">
                <rect x="212.069" y="78.843" width="0.757" height="37.492" style="fill:rgb(86,64,139);"/>
            </g>
            <g transform="matrix(1,0,0,1,212.448,259.396)">
                <path d="M0,5.152L4.617,0.535L4.082,0L0,4.082L-4.082,0L-4.617,0.535L0,5.152Z" style="fill:rgb(86,64,139);fill-rule:nonzero;"/>
            </g>
            <g transform="matrix(1,0,0,1,212.448,268.132)">
                <path d="M0,5.152L4.617,0.535L4.082,0L0,4.082L-4.082,0L-4.617,0.535L0,5.152Z" style="fill:rgb(86,64,139);fill-rule:nonzero;"/>
            </g>
            <g transform="matrix(0.946186,-41.2535,-41.2535,-0.946186,195.992,269.912)">
                <path d="M1.104,0.026C1.077,0.08 1.011,0.108 0.951,0.104C0.916,0.101 0.883,0.089 0.849,0.087C0.797,0.085 0.757,0.106 0.762,0.162C0.764,0.186 0.772,0.209 0.777,0.232C0.781,0.255 0.781,0.281 0.768,0.301C0.76,0.312 0.749,0.32 0.737,0.326C0.698,0.346 0.649,0.341 0.61,0.32C0.571,0.299 0.541,0.265 0.517,0.228C0.497,0.199 0.484,0.173 0.462,0.145C0.453,0.133 0.438,0.12 0.424,0.127C0.416,0.132 0.413,0.143 0.415,0.153C0.417,0.162 0.424,0.17 0.43,0.177C0.445,0.194 0.461,0.211 0.468,0.232C0.476,0.254 0.473,0.281 0.454,0.294C0.441,0.303 0.423,0.303 0.406,0.301C0.333,0.29 0.269,0.246 0.221,0.19C0.184,0.145 0.156,0.094 0.133,0.041C0.108,-0.017 0.104,-0.048 0.133,-0.106C0.134,-0.108 0.135,-0.11 0.136,-0.112C0.174,-0.184 0.229,-0.219 0.288,-0.273C0.316,-0.299 0.346,-0.326 0.382,-0.339C0.405,-0.347 0.431,-0.35 0.453,-0.339C0.475,-0.328 0.49,-0.301 0.482,-0.278C0.475,-0.26 0.455,-0.247 0.452,-0.228C0.442,-0.176 0.524,-0.17 0.556,-0.179C0.609,-0.193 0.628,-0.257 0.663,-0.293C0.693,-0.325 0.741,-0.34 0.784,-0.33C0.79,-0.329 0.796,-0.327 0.8,-0.323C0.805,-0.317 0.806,-0.309 0.806,-0.301C0.807,-0.288 0.804,-0.273 0.801,-0.259C0.796,-0.235 0.791,-0.21 0.802,-0.19C0.813,-0.171 0.839,-0.147 0.859,-0.136C0.918,-0.102 0.989,-0.15 1.051,-0.127C1.093,-0.111 1.116,-0.066 1.115,-0.021C1.115,-0.005 1.111,0.011 1.104,0.026Z" style="fill:url(#_Linear3);fill-rule:nonzero;"/>
            </g>
            <g transform="matrix(-1,-0,-0,1,395.071,154.176)">
                <rect x="197.157" y="78.843" width="0.757" height="57.638" style="fill:rgb(86,64,139);"/>
            </g>
            <g transform="matrix(1,0,0,1,197.536,241.839)">
                <path d="M0,6.885L-6.35,0.535L-5.815,0L0,5.815L5.815,0L6.35,0.535L0,6.885Z" style="fill:rgb(86,64,139);fill-rule:nonzero;"/>
            </g>
            <g transform="matrix(1,0,0,1,197.536,254.055)">
                <path d="M0,6.885L-6.35,0.535L-5.815,0L0,5.815L5.815,0L6.35,0.535L0,6.885Z" style="fill:rgb(86,64,139);fill-rule:nonzero;"/>
            </g>
            <g transform="matrix(0.946186,-41.2535,-41.2535,-0.946186,459.831,279.462)">
                <path d="M1.104,0.026C1.076,0.08 1.011,0.108 0.951,0.104C0.916,0.101 0.883,0.089 0.849,0.087C0.797,0.085 0.757,0.106 0.762,0.162C0.764,0.186 0.772,0.209 0.777,0.232C0.781,0.255 0.781,0.281 0.768,0.301C0.76,0.312 0.749,0.32 0.737,0.326C0.698,0.346 0.649,0.341 0.61,0.32C0.571,0.299 0.541,0.265 0.517,0.228C0.497,0.199 0.484,0.173 0.462,0.145C0.453,0.133 0.438,0.12 0.424,0.127C0.416,0.132 0.413,0.143 0.415,0.153C0.417,0.162 0.424,0.17 0.43,0.177C0.445,0.194 0.461,0.211 0.468,0.232C0.476,0.254 0.473,0.281 0.454,0.294C0.441,0.303 0.423,0.303 0.406,0.301C0.334,0.29 0.269,0.246 0.221,0.19C0.184,0.145 0.156,0.094 0.133,0.041C0.108,-0.017 0.104,-0.048 0.133,-0.106C0.134,-0.108 0.135,-0.11 0.136,-0.112C0.174,-0.184 0.229,-0.219 0.288,-0.273C0.316,-0.299 0.346,-0.326 0.382,-0.339C0.405,-0.347 0.431,-0.35 0.453,-0.339C0.475,-0.328 0.49,-0.301 0.482,-0.278C0.475,-0.26 0.455,-0.247 0.452,-0.228C0.442,-0.176 0.524,-0.17 0.556,-0.179C0.609,-0.193 0.628,-0.257 0.663,-0.293C0.693,-0.325 0.741,-0.34 0.784,-0.33C0.79,-0.329 0.796,-0.327 0.8,-0.323C0.805,-0.317 0.806,-0.309 0.806,-0.301C0.807,-0.288 0.804,-0.273 0.801,-0.259C0.796,-0.235 0.791,-0.21 0.802,-0.19C0.813,-0.171 0.839,-0.147 0.859,-0.136C0.918,-0.103 0.989,-0.15 1.051,-0.127C1.093,-0.112 1.116,-0.066 1.115,-0.021C1.115,-0.005 1.111,0.011 1.104,0.026Z" style="fill:url(#_Linear4);fill-rule:nonzero;"/>
            </g>
            <g transform="matrix(-1,-0,-0,1,922.751,163.726)">
                <rect x="460.997" y="78.843" width="0.757" height="48.088" style="fill:rgb(86,64,139);"/>
            </g>
            <g transform="matrix(1,0,0,1,461.376,251.389)">
                <path d="M0,6.885L-6.35,0.535L-5.815,0L0,5.815L5.815,0L6.35,0.535L0,6.885Z" style="fill:rgb(86,64,139);fill-rule:nonzero;"/>
            </g>
            <g transform="matrix(1,0,0,1,461.376,263.605)">
                <path d="M0,6.885L-6.35,0.535L-5.815,0L0,5.815L5.815,0L6.35,0.535L0,6.885Z" style="fill:rgb(86,64,139);fill-rule:nonzero;"/>
            </g>
            <g transform="matrix(-0.452207,-0.891913,-0.891913,0.452207,435.636,254.103)">
                <rect x="-30.726" y="18.871" width="42.957" height="1.042" style="fill:rgb(65,48,104);"/>
            </g>
            <g transform="matrix(-0.452207,-0.891913,-0.891913,0.452207,449.447,254.247)">
                <rect x="-30.726" y="18.871" width="42.957" height="1.042" style="fill:rgb(65,48,104);"/>
            </g>
            <g transform="matrix(-1,-0,-0,1,843.797,143.187)">
                <rect x="415.03" y="112.636" width="13.737" height="1.041" style="fill:rgb(65,48,104);"/>
            </g>
            <g transform="matrix(-1,-0,-0,1,852.843,161.033)">
                <rect x="419.553" y="103.713" width="13.737" height="1.041" style="fill:rgb(65,48,104);"/>
            </g>
            <g transform="matrix(-1,-0,-0,1,861.891,178.879)">
                <rect x="424.077" y="94.79" width="13.737" height="1.041" style="fill:rgb(65,48,104);"/>
            </g>
            <g transform="matrix(-1,-0,-0,1,870.94,196.726)">
                <rect x="428.601" y="85.867" width="13.738" height="1.04" style="fill:rgb(65,48,104);"/>
            </g>
            <g transform="matrix(-0.891917,-0.452199,-0.452199,0.891917,404.489,258.006)">
                <rect x="8.727" y="-2.086" width="1.042" height="42.957" style="fill:rgb(65,48,104);"/>
            </g>
            <g transform="matrix(-0.891917,-0.452199,-0.452199,0.891917,390.68,258.15)">
                <rect x="8.727" y="-2.086" width="1.042" height="42.957" style="fill:rgb(65,48,104);"/>
            </g>
            <g transform="matrix(-1,-0,-0,1,776.191,143.187)">
                <rect x="381.227" y="112.636" width="13.737" height="1.041" style="fill:rgb(65,48,104);"/>
            </g>
            <g transform="matrix(-1,-0,-0,1,767.143,161.033)">
                <rect x="376.703" y="103.713" width="13.737" height="1.041" style="fill:rgb(65,48,104);"/>
            </g>
            <g transform="matrix(-1,-0,-0,1,758.096,178.879)">
                <rect x="372.179" y="94.79" width="13.738" height="1.041" style="fill:rgb(65,48,104);"/>
            </g>
            <g transform="matrix(-1,-0,-0,1,749.047,196.726)">
                <rect x="367.655" y="85.867" width="13.737" height="1.04" style="fill:rgb(65,48,104);"/>
            </g>
            <g transform="matrix(-1,-0,-0,1,811.916,132.216)">
                <rect x="376.639" y="116.837" width="58.638" height="3.61" style="fill:white;"/>
            </g>
            <g transform="matrix(1,0,0,1,410.489,214.248)">
                <path d="M0,-2.243C0.729,-6.119 4.744,-8.307 8.354,-6.917C11.096,-5.86 12.766,-2.894 12.222,-0.006C11.493,3.87 7.478,6.059 3.869,4.668C1.127,3.612 -0.544,0.645 0,-2.243M17.448,2.319L20.885,2.316C21.581,2.315 22.145,1.751 22.144,1.055L22.141,-3.33C22.14,-4.025 21.575,-4.589 20.879,-4.588L18.189,-4.586C17.744,-4.586 17.361,-4.874 17.204,-5.29C17.109,-5.541 17.006,-5.789 16.895,-6.034C16.71,-6.439 16.776,-6.914 17.092,-7.23L18.993,-9.133C19.486,-9.625 19.485,-10.423 18.993,-10.915L15.892,-14.014C15.399,-14.506 14.602,-14.505 14.11,-14.013L12.193,-12.095C11.891,-11.793 11.438,-11.707 11.046,-11.875C10.772,-11.992 10.477,-12.111 10.222,-12.21C9.823,-12.365 9.563,-12.75 9.563,-13.178L9.563,-15.895C9.563,-16.591 8.999,-17.155 8.303,-17.155L3.919,-17.155C3.223,-17.155 2.659,-16.591 2.659,-15.895L2.659,-13.204C2.659,-12.759 2.371,-12.378 1.955,-12.221C1.691,-12.121 1.431,-12.013 1.176,-11.895C0.771,-11.709 0.296,-11.774 -0.02,-12.089L-1.93,-13.987C-2.423,-14.478 -3.221,-14.475 -3.711,-13.982L-6.803,-10.873C-7.293,-10.379 -7.291,-9.582 -6.797,-9.091L-4.874,-7.179C-4.571,-6.878 -4.485,-6.424 -4.651,-6.031C-4.768,-5.758 -4.885,-5.463 -4.984,-5.208C-5.139,-4.808 -5.522,-4.548 -5.95,-4.547L-8.668,-4.54C-9.364,-4.538 -9.927,-3.973 -9.925,-3.277L-9.915,1.107C-9.913,1.803 -9.348,2.366 -8.651,2.364L-5.96,2.357C-5.515,2.357 -5.132,2.644 -4.974,3.06C-4.879,3.311 -4.776,3.559 -4.664,3.803C-4.478,4.208 -4.544,4.683 -4.859,4.999L-6.758,6.906C-7.249,7.399 -7.247,8.196 -6.754,8.688L-3.648,11.781C-3.155,12.273 -2.357,12.271 -1.866,11.778L0.048,9.856C0.349,9.554 0.802,9.467 1.195,9.635C1.468,9.751 1.764,9.869 2.018,9.968C2.418,10.122 2.678,10.506 2.679,10.935L2.683,13.652C2.684,14.349 3.249,14.912 3.945,14.91L8.329,14.903C9.025,14.902 9.589,14.337 9.587,13.641L9.583,10.95C9.582,10.505 9.87,10.122 10.286,9.965C10.538,9.87 10.785,9.767 11.029,9.655C11.435,9.47 11.91,9.536 12.225,9.851L14.131,11.752C14.623,12.243 15.421,12.242 15.913,11.75L19.009,8.646C19.5,8.153 19.499,7.355 19.007,6.864L17.087,4.949C16.785,4.647 16.699,4.194 16.866,3.801C17.146,3.146 17.434,2.365 17.448,2.319" style="fill:rgb(86,64,139);fill-rule:nonzero;"/>
            </g>
            <g transform="matrix(-1,-0,-0,1,574.318,191.715)">
                <rect x="277.949" y="81.472" width="18.42" height="14.841" style="fill:rgb(241,242,242);"/>
            </g>
            <g transform="matrix(-1,-0,-0,1,574.319,208.581)">
                <rect x="274.659" y="78.843" width="25.001" height="3.233" style="fill:rgb(86,64,139);"/>
            </g>
            <g transform="matrix(-1,-0,-0,1,574.318,191.714)">
                <rect x="281.528" y="88.393" width="11.262" height="1" style="fill:rgb(86,64,139);"/>
            </g>
            <g transform="matrix(-1,-0,-0,1,574.318,196.194)">
                <rect x="281.528" y="86.153" width="11.262" height="1" style="fill:rgb(86,64,139);"/>
            </g>
            <g transform="matrix(-1,-0,-0,1,574.318,200.674)">
                <rect x="281.528" y="83.913" width="11.262" height="1" style="fill:rgb(86,64,139);"/>
            </g>
            <g transform="matrix(-1,-0,-0,1,714.468,191.715)">
                <rect x="348.024" y="81.472" width="18.42" height="14.841" style="fill:rgb(241,242,242);"/>
            </g>
            <g transform="matrix(-1,-0,-0,1,714.467,208.581)">
                <rect x="344.733" y="78.843" width="25.001" height="3.233" style="fill:rgb(86,64,139);"/>
            </g>
            <g transform="matrix(-1,-0,-0,1,714.466,191.714)">
                <rect x="351.602" y="88.393" width="11.262" height="1" style="fill:rgb(86,64,139);"/>
            </g>
            <g transform="matrix(-1,-0,-0,1,714.466,196.194)">
                <rect x="351.602" y="86.153" width="11.262" height="1" style="fill:rgb(86,64,139);"/>
            </g>
            <g transform="matrix(-1,-0,-0,1,714.466,200.674)">
                <rect x="351.602" y="83.913" width="11.262" height="1" style="fill:rgb(86,64,139);"/>
            </g>
            <g transform="matrix(26.4999,-170.5,-170.5,-26.4999,309.739,268.091)">
                <path d="M1.006,0.104L0.988,0.122C0.933,0.173 0.858,0.196 0.784,0.185L-0.006,0.062L0.036,-0.205L0.829,-0.082C0.901,-0.071 0.964,-0.027 0.999,0.037L1.013,0.062C1.017,0.069 1.018,0.077 1.017,0.084C1.016,0.092 1.012,0.099 1.006,0.104Z" style="fill:url(#_Linear5);fill-rule:nonzero;"/>
            </g>
            <g>
                <g opacity="0.149994">
                    <g transform="matrix(1,0,0,1,329.582,261.549)">
                        <clipPath id="_clip6">
                            <rect x="-10.938" y="-169.485" width="27.001" height="175.408" clip-rule="nonzero"/>
                        </clipPath>
                        <g clip-path="url(#_clip6)">
                            <path d="M0,-164.71L-4.913,-168.505C-7.667,-170.633 -9.515,-168.828 -10.939,-167.484C-10.788,-167.09 -7.956,-169.008 -7.876,-168.947L-5.594,-168.349C4.538,-160.522 8.907,-144.805 8.907,-132.002L8.907,5.174C8.907,5.587 9.243,5.923 9.656,5.923L15.314,5.923C15.728,5.923 16.063,5.587 16.063,5.174L16.063,-132.004C16.063,-144.805 10.131,-156.884 0,-164.71" style="fill:rgb(82,93,122);fill-rule:nonzero;"/>
                        </g>
                    </g>
                </g>
            </g>
            <g>
                <g opacity="0.300003">
                    <g transform="matrix(1,0,0,1,326.603,264.796)">
                        <clipPath id="_clip7">
                            <rect x="-24.426" y="-172.471" width="24.425" height="175.147" clip-rule="nonzero"/>
                        </clipPath>
                        <g clip-path="url(#_clip7)">
                            <path d="M0,-170.258L-1.934,-171.752C-3.465,-172.934 -3.975,-172.125 -4.286,-172.235L-5.765,-172.47C-6.01,-172.256 -6.29,-172.021 -6.639,-171.752L-8.885,-170.016C-18.697,-161.985 -24.425,-149.972 -24.425,-137.251L-24.425,2.676L-15.839,2.676L-15.839,-137.251C-15.839,-150.101 -9.994,-162.227 0,-170.258" style="fill:white;fill-rule:nonzero;"/>
                        </g>
                    </g>
                </g>
            </g>
            <g transform="matrix(1,0,0,1,298.989,152.515)">
                <path d="M0,125.829L-23.66,125.829L-23.66,28.584C-23.66,18.607 -20.183,8.943 -13.827,1.253C-12.791,0 -10.869,0 -9.833,1.253C-3.477,8.943 0,18.607 0,28.584L0,125.829Z" style="fill:white;fill-rule:nonzero;"/>
            </g>
            <g transform="matrix(0.764836,-0.644224,-0.644224,-0.764836,299.377,159.597)">
                <path d="M-7.116,-4.434C-5.167,0.458 -4.111,5.699 -4.062,11.043C-4.046,12.67 -5.515,13.907 -7.116,13.615C-12.373,12.659 -17.36,10.728 -21.849,7.976L-7.116,-4.434Z" style="fill:rgb(86,64,139);fill-rule:nonzero;"/>
            </g>
            <g>
                <g opacity="0.149994">
                    <g transform="matrix(1,0,0,1,289.156,277.435)">
                        <path d="M0,-123.667C-0.449,-124.21 -1.066,-124.504 -1.703,-124.576C4,-117.1 3.87,-105.77 3.87,-96.336L3.87,0.909L9.833,0.909L9.833,-96.336C9.833,-106.313 6.356,-115.977 0,-123.667" style="fill:rgb(82,93,122);fill-rule:nonzero;"/>
                    </g>
                </g>
            </g>
            <g transform="matrix(1,0,0,1,366.396,147.779)">
                <path d="M0,17.072C-0.882,11.657 -2.802,6.421 -5.697,1.665L-5.697,1.664C-6.543,0.275 -8.444,0 -9.649,1.092C-13.716,4.777 -17.039,9.4 -19.415,14.259L0,17.072Z" style="fill:rgb(86,64,139);fill-rule:nonzero;"/>
            </g>
            <g transform="matrix(1,0,0,1,366.768,278.344)">
                <path d="M0,-110.382C1.306,-106.239 2.295,-101.653 2.295,-97.245L2.295,0L-21.365,0L-21.365,-97.245C-21.365,-101.733 -20.661,-106.158 -19.308,-110.368L0,-110.382Z" style="fill:white;fill-rule:nonzero;"/>
            </g>
            <g>
                <g opacity="0.149994">
                    <g transform="matrix(1,0,0,1,347.508,278.344)">
                        <path d="M0,-110.517C-1.272,-106.425 -2.105,-101.594 -2.105,-97.246L-2.105,0L3.859,0L3.859,-97.246C3.859,-101.176 3.836,-106.344 4.222,-110.517L0,-110.517Z" style="fill:rgb(82,93,122);fill-rule:nonzero;"/>
                    </g>
                </g>
            </g>
            <g>
                <g opacity="0.300003">
                    <g transform="matrix(1,0,0,1,366,148.847)">
                        <clipPath id="_clip8">
                            <rect x="-81.849" y="-5.816" width="81.849" height="125.131" clip-rule="nonzero"/>
                        </clipPath>
                        <g clip-path="url(#_clip8)">
                            <path d="M0,113.371L0,95.131C0,88.355 -2.79,81.762 -7.655,77.045C-10.981,73.819 -14.465,70.283 -17.416,66.291L-23.483,58.086L-23.483,23.544C-23.483,12.968 -28.479,2.794 -36.849,-3.67L-38.029,-4.581C-38.65,-5.062 -39.372,-5.337 -40.112,-5.428C-40.645,-5.944 -40.617,-5.944 -41.15,-5.428C-41.891,-5.337 -42.613,-5.061 -43.234,-4.581L-44.108,-3.905C-52.669,2.706 -57.779,13.111 -57.779,23.928L-57.779,57.293L-64.433,66.291C-67.384,70.283 -70.869,73.819 -74.195,77.045C-79.059,81.763 -81.849,88.355 -81.849,95.131L-81.849,113.371L-57.779,113.371L-57.779,119.315L-23.483,119.315L-23.483,113.371L0,113.371Z" style="fill:rgb(35,31,32);fill-rule:nonzero;"/>
                        </g>
                    </g>
                </g>
            </g>
            <g transform="matrix(-1,-0,-0,1,644.88,170.681)">
                <rect x="311.598" y="90.674" width="21.684" height="17.471" style="fill:rgb(241,242,242);"/>
            </g>
            <g transform="matrix(-1,-0,-0,1,644.879,190.539)">
                <rect x="307.724" y="87.578" width="29.431" height="3.805" style="fill:rgb(86,64,139);"/>
            </g>
            <g transform="matrix(1,0,0,1,282.082,201.877)">
                <path d="M0,59.651L27.39,59.651L27.39,0L17.281,13.671C14.373,17.604 10.955,21.104 7.444,24.51C2.74,29.073 0,35.397 0,42.102L0,59.651Z" style="fill:rgb(86,64,139);fill-rule:nonzero;"/>
            </g>
            <g>
                <g opacity="0.300003">
                    <g transform="matrix(0,1,1,0,323.079,227.325)">
                        <path d="M-13.607,-22.362L34.204,-22.362L34.204,-13.607L-25.448,-13.607L-13.607,-22.362Z" style="fill:rgb(49,32,117);fill-rule:nonzero;"/>
                    </g>
                </g>
            </g>
            <g transform="matrix(1,0,0,1,362.552,201.973)">
                <path d="M0,59.383L-27.39,59.383L-27.39,0L-17.281,13.61C-14.373,17.525 -10.955,21.01 -7.444,24.4C-2.74,28.942 0,35.239 0,41.912L0,59.383Z" style="fill:rgb(86,64,139);fill-rule:nonzero;"/>
            </g>
            <g>
                <g opacity="0.300003">
                    <g transform="matrix(0,1,1,0,358.369,236.079)">
                        <path d="M-22.362,-13.607L25.448,-13.607L25.448,-22.362L-34.204,-22.362L-22.362,-13.607Z" style="fill:rgb(49,32,117);fill-rule:nonzero;"/>
                    </g>
                </g>
            </g>
            <g transform="matrix(1,0,0,1,338.951,145.289)">
                <path d="M0,122.183L-32.682,122.183L-32.682,25.694C-32.682,16.647 -28.489,8.111 -21.33,2.581L-19.293,1.007C-18.447,0.354 -17.409,0 -16.341,0C-15.273,0 -14.235,0.354 -13.389,1.007L-11.048,2.815C-4.08,8.198 0,16.505 0,25.31L0,122.183Z" style="fill:white;fill-rule:nonzero;"/>
            </g>
            <g>
                <g opacity="0.100006">
                    <g transform="matrix(1,0,0,1,323.707,265.16)">
                        <path d="M0,-117.879C-0.016,-117.891 -0.03,-117.904 -0.045,-117.916L-2.99,-120.191L-5.63,-118.152C-12.841,-112.582 -17.064,-103.983 -17.064,-94.871L-17.064,2.312L-11.1,2.312L-11.1,-94.871C-11.1,-103.839 -7.003,-112.302 0,-117.879" style="fill:rgb(82,93,122);fill-rule:nonzero;"/>
                    </g>
                </g>
            </g>
            <g transform="matrix(1,0,0,1,311.697,145.288)">
                <path d="M0,8.745L21.797,8.568C20.232,6.42 18.357,4.478 16.206,2.816L13.865,1.008C13.02,0.355 11.982,0 10.913,0C9.845,0 8.807,0.355 7.961,1.008L5.924,2.581C3.63,4.354 1.645,6.437 0,8.745" style="fill:rgb(86,64,139);fill-rule:nonzero;"/>
            </g>
            <g transform="matrix(1,0,0,1,332.022,174.387)">
                <path d="M0,9.163C-0.553,9.163 -1,8.716 -1,8.163C-1,5.771 -2.011,3.468 -3.771,1.846C-4.179,1.472 -4.204,0.84 -3.83,0.434C-3.457,0.026 -2.822,0 -2.418,0.375C-0.246,2.374 1,5.213 1,8.163C1,8.716 0.553,9.163 0,9.163" style="fill:rgb(86,64,139);fill-rule:nonzero;"/>
            </g>
            <g transform="matrix(1,0,0,1,312.857,171.968)">
                <path d="M0,11.582C-0.553,11.582 -1,11.135 -1,10.582C-1,4.747 3.747,0 9.582,0C11.011,0 12.397,0.28 13.702,0.832C14.211,1.047 14.448,1.634 14.233,2.143C14.018,2.653 13.427,2.887 12.923,2.674C11.866,2.227 10.742,2 9.582,2C4.85,2 1,5.85 1,10.582C1,11.135 0.553,11.582 0,11.582" style="fill:rgb(86,64,139);fill-rule:nonzero;"/>
            </g>
            <g transform="matrix(-1,-0,-0,1,644.879,170.682)">
                <rect x="315.811" y="98.909" width="13.257" height="1" style="fill:rgb(86,64,139);"/>
            </g>
            <g transform="matrix(-1,-0,-0,1,644.879,175.956)">
                <rect x="315.811" y="96.272" width="13.257" height="1" style="fill:rgb(86,64,139);"/>
            </g>
            <g transform="matrix(-1,-0,-0,1,644.879,181.23)">
                <rect x="315.811" y="93.635" width="13.257" height="1" style="fill:rgb(86,64,139);"/>
            </g>
            <g transform="matrix(-1,-0,-0,1,840.394,196.37)">
                <rect x="418.917" y="85.163" width="2.56" height="2.804" style="fill:rgb(246,246,246);"/>
            </g>
            <g transform="matrix(-0.897299,0.441423,0.441423,0.897299,443.828,281.692)">
                <rect x="-3.048" y="-0.709" width="2.56" height="2.804" style="fill:rgb(246,246,246);"/>
            </g>
            <g transform="matrix(1,0,0,1,440.071,282.448)">
                <path d="M0,-48.526L-4.267,-39.26L-13.179,-25.848L-17.191,0L-22.434,0L-20.727,-24.402L-15.362,-41.82L-14.021,-48.526L0,-48.526Z" style="fill:rgb(86,64,139);fill-rule:nonzero;"/>
            </g>
            <g>
                <g opacity="0.300003">
                    <g transform="matrix(1,0,0,1,437.455,254.668)">
                        <path d="M0,-15.067L-12.168,-16.935L-12.747,-14.04L-13.381,-11.982C-12.021,-8.449 -10.616,-3.532 -10.521,1.868L-1.652,-11.48L0,-15.067Z" style="fill:rgb(43,32,70);fill-rule:nonzero;"/>
                    </g>
                </g>
            </g>
            <g transform="matrix(-1,-0,-0,1,885.087,35.674)">
                <rect x="439.862" y="163.804" width="5.363" height="6.218" style="fill:white;"/>
            </g>
            <g transform="matrix(1,0,0,1,439.235,233.922)">
                <path d="M0,-29.854L6.81,-29.506L6.81,-28.165C6.81,-28.165 9.614,-24.385 9.492,-22.434C9.37,-20.483 1.933,-0.732 0.835,0L-13.186,0C-13.186,0 -7.577,-14.753 -7.212,-16.338C-7.212,-16.338 -5.505,-24.263 -2.457,-26.702C-2.457,-26.702 -0.096,-28.381 0,-29.854" style="fill:rgb(98,63,233);fill-rule:nonzero;"/>
            </g>
            <g>
                <g opacity="0.199997">
                    <g transform="matrix(1,0,0,1,446.045,232.581)">
                        <clipPath id="_clip9">
                            <rect x="-7.911" y="-28.165" width="10.597" height="29.506" clip-rule="nonzero"/>
                        </clipPath>
                        <g clip-path="url(#_clip9)">
                            <path d="M0,-26.824L0,-28.165L-1.936,-28.165L-1.936,-26.824C-1.936,-26.824 0.868,-23.044 0.746,-21.094C0.624,-19.143 -6.814,0.609 -7.911,1.341L-5.974,1.341C-4.877,0.609 2.56,-19.143 2.682,-21.094C2.804,-23.044 0,-26.824 0,-26.824" style="fill:rgb(82,93,122);fill-rule:nonzero;"/>
                        </g>
                    </g>
                </g>
            </g>
            <g>
                <g opacity="0.199997">
                    <g transform="matrix(1,0,0,1,439.679,209.979)">
                        <clipPath id="_clip10">
                            <rect x="-4.025" y="0.427" width="8.78" height="9.183" clip-rule="nonzero"/>
                        </clipPath>
                        <g clip-path="url(#_clip10)">
                            <path d="M0,9.61L-4.025,4.452L-0.375,1.296C0.872,0 1.819,0.231 3.115,1.478L3.263,1.706C4.559,2.953 5.073,3.848 4.557,5.192L0,9.61Z" style="fill:rgb(82,93,122);fill-rule:nonzero;"/>
                        </g>
                    </g>
                </g>
            </g>
            <g transform="matrix(1,0,0,1,439.072,209.027)">
                <path d="M0,9.928L-4.149,4.505L0.242,1.146C1.739,0 3.882,0.286 5.027,1.784C6.172,3.282 5.887,5.424 4.389,6.57L0,9.928Z" style="fill:rgb(98,63,233);fill-rule:nonzero;"/>
            </g>
            <g>
                <g opacity="0.199997">
                    <g transform="matrix(1,0,0,1,430.377,220.706)">
                        <path d="M0,1.64C-0.599,3.282 -1.287,5.132 -1.936,6.868L1.23,5.378L9.297,-1.12L6.154,-5.228L0,1.64Z" style="fill:rgb(82,93,122);fill-rule:nonzero;"/>
                    </g>
                </g>
            </g>
            <g transform="matrix(1,0,0,1,417.311,214.213)">
                <path d="M0,16.823L13.208,10.605L21.275,4.107L18.132,0L11.542,7.354L-0.427,14.835L0.041,15.4L-2.37,15.507C-3.4,15.552 -6.178,15.157 -7.275,16.295L-2.439,16.823L0,16.823Z" style="fill:white;fill-rule:nonzero;"/>
            </g>
            <g>
                <g opacity="0.149994">
                    <g transform="matrix(1,0,0,1,437.709,231.036)">
                        <path d="M0,-13.862L-8.073,-7.359L-21.549,-0.538L-24.938,-0.685L-26.244,-1.196C-26.813,-1.08 -27.329,-0.885 -27.672,-0.528L-22.836,0L-20.398,0L-7.189,-6.218L0.877,-12.716L0,-13.862Z" style="fill:rgb(82,93,122);fill-rule:nonzero;"/>
                    </g>
                </g>
            </g>
            <g transform="matrix(1,0,0,1,440.071,281.899)">
                <path d="M0,-47.977C0,-47.977 0.854,-43.832 0,-41.149C-0.853,-38.467 -2.073,-36.903 -2.073,-36.903L-0.847,-23.853L8.421,-1.492L3.414,0L-3.411,-11.63L-7.437,-19.492L-15.244,-41.865L-14.021,-47.977L0,-47.977Z" style="fill:rgb(86,64,139);fill-rule:nonzero;"/>
            </g>
            <g>
                <g opacity="0.199997">
                    <g transform="matrix(1,0,0,1,438.618,280.362)">
                        <path d="M0,-45.956C0,-45.956 0.854,-41.811 0,-39.128C-0.853,-36.446 -2.073,-34.882 -2.073,-34.882L-0.847,-21.832L8.402,0.484L9.874,0.045L0.606,-22.316L-0.62,-35.366C-0.62,-35.366 0.599,-36.93 1.452,-39.612C2.306,-42.295 1.452,-46.44 1.452,-46.44L-12.569,-46.44L-12.666,-45.956L0,-45.956Z" style="fill:rgb(43,32,70);fill-rule:nonzero;"/>
                    </g>
                </g>
            </g>
            <g transform="matrix(1,0,0,1,447.346,187.671)">
                <path d="M0,13.168L-7.751,13.168C-8.969,13.168 -9.955,12.181 -9.955,10.964L-9.955,8.453L-11.545,8.453C-11.884,5.867 -9.48,4.003 -9.071,2.695C-8.448,0.703 -9.955,0 -9.955,0L0,0L0,13.168Z" style="fill:white;fill-rule:nonzero;"/>
            </g>
            <g transform="matrix(-1,-0,-0,1,866.242,99.057)">
                <rect x="425.399" y="134.133" width="15.444" height="2.177" style="fill:rgb(43,32,70);"/>
            </g>
            <g transform="matrix(1,0,0,1,416.626,227.677)">
                <path d="M0,2.559L-1.602,1.012C-1.881,0.87 -1.993,0.529 -1.851,0.25C-1.71,-0.03 -1.368,-0.142 -1.089,0L1.001,1.059C1.28,1.201 1.392,1.542 1.25,1.822C1.109,2.101 0.28,2.701 0,2.559" style="fill:rgb(246,246,246);fill-rule:nonzero;"/>
            </g>
            <g transform="matrix(1,0,0,1,422.388,289.28)">
                <path d="M0,-5.861L-4.665,-5.861L-6.61,-3.662L-10.607,-3.662C-13.128,-3.662 -15.434,-2.247 -16.576,0L0,0L0,-5.861Z" style="fill:rgb(93,218,244);fill-rule:nonzero;"/>
            </g>
            <g transform="matrix(1,0,0,1,421.477,286.349)">
                <path d="M0,0C0,0.808 -0.655,1.463 -1.463,1.463C-2.271,1.463 -2.926,0.808 -2.926,0C-2.926,-0.808 -2.271,-1.463 -1.463,-1.463C-0.655,-1.463 0,-0.808 0,0" style="fill:white;fill-rule:nonzero;"/>
            </g>
            <g transform="matrix(-1,-0,-0,1,828.202,210.436)">
                <rect x="405.16" y="78.843" width="17.882" height="1.378" style="fill:rgb(86,64,139);"/>
            </g>
            <g transform="matrix(1,0,0,1,448.386,289.385)">
                <path d="M0,-8.197L-4.302,-6.392L-5.245,-3.612L-9.907,-3.529C-12.231,-2.555 -12.835,-2.514 -13.018,0L-4.389,0L2.267,-2.792L0,-8.197Z" style="fill:rgb(93,218,244);fill-rule:nonzero;"/>
            </g>
            <g transform="matrix(1,0,0,1,448.679,285.375)">
                <path d="M0,-1.132C0.312,-0.387 -0.038,0.471 -0.783,0.783C-1.529,1.096 -2.386,0.745 -2.699,0C-3.011,-0.745 -2.66,-1.603 -1.915,-1.915C-1.17,-2.228 -0.313,-1.877 0,-1.132" style="fill:white;fill-rule:nonzero;"/>
            </g>
            <g transform="matrix(-1,-0,-0,1,879.755,210.244)">
                <rect x="435.011" y="78.939" width="9.733" height="1.378" style="fill:rgb(86,64,139);"/>
            </g>
            <g transform="matrix(-0.919245,0.393687,0.393687,0.919245,444.806,290.653)">
                <rect x="-7.25" y="-1.487" width="7.272" height="1.378" style="fill:rgb(86,64,139);"/>
            </g>
            <g>
                <g opacity="0.149994">
                    <g transform="matrix(1,0,0,1,446.065,190.227)">
                        <clipPath id="_clip11">
                            <rect x="-8.675" y="-2.556" width="9.956" height="15.454" clip-rule="nonzero"/>
                        </clipPath>
                        <g clip-path="url(#_clip11)">
                            <path d="M0,10.612L1.28,10.612L1.28,-2.556L-8.675,-2.556C-8.675,-2.556 -7.427,-1.951 -7.697,-0.316C-7.19,-0.104 -6.633,-0.019 -5.925,-0.125C-5.549,-0.181 -5.183,-0.109 -4.843,0.049C-4.136,0.377 -3.547,1.074 -3.229,1.744C-2.924,2.384 -2.794,4.179 -2.736,4.886C-2.674,5.638 -2.341,7.217 -2.768,7.856C-3.086,8.333 -4.148,8.058 -4.676,7.834C-5.788,7.362 -6.634,6.375 -8.238,6.34C-8.388,6.336 -8.537,6.413 -8.675,6.528L-8.675,8.408C-8.675,9.625 -7.688,10.612 -6.471,10.612L-6.203,10.612L-6.203,12.743C-6.024,12.756 -5.844,12.764 -5.667,12.768C-4.439,12.792 -3.402,13.168 -2.266,12.519C-0.969,11.744 -1.419,10.128 -1.507,8.921C-1.565,8.118 -1.571,7.283 -1.613,6.498C-1.64,5.991 -1.683,5.432 -1.167,5.083C-0.276,4.481 0.607,5.535 0.623,6.392C0.64,7.298 0.688,8.559 0.474,9.433C0.404,9.719 0.115,10.191 0,10.612" style="fill:rgb(82,93,122);fill-rule:nonzero;"/>
                        </g>
                    </g>
                </g>
            </g>
            <g transform="matrix(1,0,0,1,437.567,191.697)">
                <path d="M0,4.386C1.603,4.421 2.45,5.408 3.562,5.88C4.089,6.105 4.795,6.13 5.113,5.654C5.539,5.014 5.271,3.604 5.209,2.852C5.151,2.145 5.024,0.622 4.719,-0.019C4.401,-0.689 4.101,-1.577 3.394,-1.905C3.055,-2.063 2.689,-2.135 2.313,-2.079C0.738,-1.843 -0.103,-2.516 -1.266,-3.556C-1.513,-3.776 -1.754,-4.01 -1.927,-4.292C-2.291,-4.889 -2.309,-5.628 -2.316,-6.328C-2.317,-6.456 -2.316,-6.593 -2.245,-6.7C-2.143,-6.854 -1.421,-6.482 -1.273,-6.37C-0.355,-5.677 1.147,-5.15 2.328,-5.391C3.433,-5.617 4.212,-6.583 5.353,-6.524C6.563,-6.462 7.661,-5.587 8.436,-4.717C8.672,-4.613 9.216,-4.649 9.47,-4.694C10.203,-4.824 11.005,-4.569 11.469,-4.038C12.109,-3.305 11.869,-2.07 11.895,-1.149C11.92,-0.231 11.733,0.659 11.741,1.565C11.754,2.896 11.738,4.117 11.388,5.432C11.262,5.902 11.386,6.368 11.17,6.783C10.892,7.317 10.802,7.921 10.591,8.484C10.48,8.782 10.341,9.089 10.086,9.279C9.773,9.512 8.535,9.646 8.272,9.264C7.962,8.815 8.289,7.853 8.398,7.411C8.611,6.537 8.878,5.345 8.861,4.438C8.844,3.581 7.962,2.527 7.07,3.129C6.555,3.478 6.402,4.057 6.429,4.564C6.47,5.349 6.516,6.164 6.574,6.967C6.662,8.175 6.95,9.816 5.653,10.591C4.517,11.24 3.799,10.838 2.57,10.814C1.978,10.802 1.35,10.78 0.851,10.46C0.215,10.051 -0.213,9.457 -0.435,8.734C-0.586,8.241 -0.808,7.736 -0.959,7.244C-1.103,6.777 -1.013,6.124 -0.998,5.637C-0.982,5.15 -0.488,4.375 0,4.386" style="fill:rgb(65,48,104);fill-rule:nonzero;"/>
            </g>
            <g transform="matrix(1,0,0,1,435.098,188.753)">
                <path d="M0,-2.787C0.103,-2.941 0.322,-2.979 0.5,-2.926C0.678,-2.874 0.826,-2.753 0.974,-2.641C1.893,-1.948 3.392,-1.237 4.573,-1.479C5.678,-1.705 6.448,-2.91 7.589,-2.852C8.798,-2.79 10.114,-1.882 10.889,-1.012C11.125,-0.909 11.393,-1.008 11.647,-1.053C12.38,-1.183 13.251,-0.656 13.714,-0.126C14.015,0.219 14.119,0.677 14.15,1.16C14.178,0.361 14.216,-0.519 13.714,-1.094C13.251,-1.624 12.476,-1.994 11.743,-1.864C11.489,-1.819 11.125,-1.877 10.889,-1.981C10.114,-2.851 8.789,-3.536 7.58,-3.598C6.439,-3.656 5.678,-2.673 4.573,-2.447C3.392,-2.205 1.893,-2.917 0.974,-3.61C0.826,-3.721 0.678,-3.842 0.5,-3.895C0.322,-3.947 0.103,-3.91 0,-3.755C-0.071,-3.648 -0.072,-3.511 -0.071,-3.383C-0.068,-3.147 -0.059,-2.907 -0.041,-2.669C-0.031,-2.71 -0.023,-2.752 0,-2.787" style="fill:rgb(86,64,139);fill-rule:nonzero;"/>
            </g>
            <g transform="matrix(-0.910343,0.413855,0.413855,0.910343,401.366,241.811)">
                <rect x="-5.093" y="-1.103" width="4.357" height="4.5" style="fill:rgb(246,246,246);"/>
            </g>
            <g transform="matrix(1,0,0,1,388.038,223.808)">
                <path d="M0,-7.517L4.115,2.592L13.878,18.231L18.634,16.083L8.833,-2.35L1.533,-25.748L0,-7.517Z" style="fill:rgb(215,126,219);fill-rule:nonzero;"/>
            </g>
            <g transform="matrix(1,0,0,1,401.955,247.529)">
                <path d="M0,-5.626L-0.332,-5.479L-1.885,-1.706L-2.747,-0.386L-5.449,0.356L-5.444,1.463L-2.258,1.524L7.553,-2.611L7.758,-3.936L6.405,-6.999L5.549,-7.15L4.882,-6.856L4.016,-4.621L0.937,-3.305L0,-5.626Z" style="fill:white;fill-rule:nonzero;"/>
            </g>
            <g transform="matrix(1,0,0,1,409.709,244.96)">
                <path d="M0,-1.375L-1.349,-4.43L-2.206,-4.581L-2.873,-4.286L-3.739,-2.052L-6.818,-0.736L-7.755,-3.057L-8.087,-2.91L-9.64,0.863L-10.502,2.183L-13.204,2.925L-13.203,3.206L-10.86,3.206L0,-1.375Z" style="fill:rgb(86,64,139);fill-rule:nonzero;"/>
            </g>
            <g transform="matrix(-1,-0,-0,1,777.367,118.296)">
                <rect x="386.505" y="123.352" width="4.357" height="4.5" style="fill:rgb(246,246,246);"/>
            </g>
            <g transform="matrix(1,0,0,1,378.275,242.893)">
                <path d="M0,-53.204L5.651,-20.396L8.149,0.35L12.668,0.35C12.668,0.35 13.051,-19.054 11.731,-21.677L12.668,-44.15C13.356,-46.347 13.499,-48.679 13.084,-50.945C12.917,-51.855 12.501,-52.701 11.881,-53.388L11.731,-53.554L0,-53.204Z" style="fill:rgb(248,170,143);fill-rule:nonzero;"/>
            </g>
            <g>
                <g opacity="0.199997">
                    <g transform="matrix(1,0,0,1,392.677,198.061)">
                        <path d="M0,29.179C-0.256,26.202 -0.594,23.763 -1.036,22.962L-0.972,6.838L-3.105,0L-4.639,18.231L-0.524,28.34L0,29.179Z" style="fill:rgb(82,93,122);fill-rule:nonzero;"/>
                    </g>
                </g>
            </g>
            <g transform="matrix(1,0,0,1,378.275,242.893)">
                <path d="M0,-53.204L5.651,-20.396L8.149,0.35L12.668,0.35C12.668,0.35 13.051,-19.054 11.731,-21.677L12.668,-44.15C13.356,-46.347 13.499,-48.679 13.084,-50.945C12.917,-51.855 12.501,-52.701 11.881,-53.388L11.731,-53.554L0,-53.204Z" style="fill:rgb(215,126,219);fill-rule:nonzero;"/>
            </g>
            <g transform="matrix(1,0,0,1,385.9,249.053)">
                <path d="M0,-5.809L-0.363,-5.809L-3.308,-2.985L-7.988,-1.21L-7.988,0L5.692,0L6.414,-1.129L6.414,-4.478L5.692,-4.962L4.962,-4.962L3.268,-3.267L-0.081,-3.308L0,-5.809Z" style="fill:white;fill-rule:nonzero;"/>
            </g>
            <g transform="matrix(1,0,0,1,390.862,246.965)">
                <path d="M0,-2.874L-1.694,-1.18L-5.043,-1.22L-4.962,-3.721L-5.325,-3.721L-8.27,-0.897L-12.869,0.847L1.452,0.847L1.452,-2.39L0.73,-2.874L0,-2.874Z" style="fill:rgb(86,64,139);fill-rule:nonzero;"/>
            </g>
            <g transform="matrix(-1,-0,-0,1,777.084,-43.897)">
                <rect x="386.303" y="204.52" width="4.478" height="4.357" style="fill:white;"/>
            </g>
            <g>
                <g opacity="0.149994">
                    <g transform="matrix(1,0,0,1,386.33,159.679)">
                        <path d="M0,2.443C1.504,2.111 2.773,1.216 3.601,0L-0.34,0.829L0,2.443Z" style="fill:rgb(82,93,122);fill-rule:nonzero;"/>
                    </g>
                </g>
            </g>
            <g transform="matrix(1,0,0,1,385.134,159.856)">
                <path d="M0,-8.714L-0.202,-6.293C-0.202,-6.293 -1.13,-4.397 -1.977,-3.913C-1.977,-3.913 -1.815,-3.268 -1.372,-3.227L-1.399,-0.088C-1.406,0.761 -0.72,1.452 0.128,1.452L1.595,1.452C4.155,1.452 6.423,-0.199 7.209,-2.635L8.351,-6.172L6.697,-9.642L2.542,-9.884C2.542,-9.884 0.928,-10.166 0,-8.714" style="fill:white;fill-rule:nonzero;"/>
            </g>
            <g>
                <g opacity="0.149994">
                    <g transform="matrix(1,0,0,1,387.264,149.69)">
                        <path d="M0,11.576C2.334,11.363 4.348,9.796 5.079,7.532L6.22,3.994L4.566,0.525L0.411,0.283C0.411,0.283 -1.202,0 -2.13,1.453L-2.228,2.63C-1.754,3.011 -1.231,3.329 -0.681,3.586C-0.441,3.698 -0.077,3.762 0.13,3.914C0.374,4.092 0.559,4.591 0.668,4.864C0.72,4.994 0.764,5.126 0.82,5.253C1.061,5.796 1.871,6.194 1.854,6.831C1.846,7.102 1.642,7.325 1.429,7.492C1.216,7.659 0.975,7.805 0.833,8.036C0.592,8.43 0.712,8.937 0.85,9.378C0.976,9.784 1.153,10.324 0.924,10.728C0.73,11.071 0.293,11.292 0,11.576" style="fill:rgb(82,93,122);fill-rule:nonzero;"/>
                    </g>
                </g>
            </g>
            <g transform="matrix(1,0,0,1,384.958,167.047)">
                <path d="M0,-17.814C-0.941,-16.7 -0.122,-15.265 0.794,-14.431C1.323,-13.95 1.948,-13.588 2.593,-13.286C2.833,-13.175 3.197,-13.111 3.404,-12.959C3.648,-12.78 3.833,-12.281 3.942,-12.008C3.994,-11.879 4.038,-11.746 4.094,-11.619C4.335,-11.077 5.145,-10.679 5.128,-10.042C5.12,-9.771 4.916,-9.548 4.703,-9.381C4.49,-9.214 4.249,-9.067 4.107,-8.836C3.866,-8.443 3.987,-7.936 4.124,-7.494C4.25,-7.089 4.427,-6.549 4.198,-6.145C3.984,-5.766 3.466,-5.541 3.181,-5.21C2.864,-4.841 2.451,-4.607 2.145,-4.214C1.698,-3.638 1.604,-2.835 1.164,-2.31C0.694,-1.748 -0.138,-1.444 -0.729,-1.028C-1.42,-0.542 -2.05,0.204 -1.975,1.045C-0.703,0.604 0.879,1.256 1.959,0.451C2.156,0.305 2.319,0.119 2.511,-0.034C2.976,-0.404 3.575,-0.553 4.106,-0.822C4.635,-1.089 5.1,-1.48 5.454,-1.955C5.973,-1.77 6.544,-1.831 7.092,-1.895C7.853,-1.985 8.643,-2.084 9.291,-2.494C9.848,-2.847 10.246,-3.398 10.629,-3.935C10.824,-4.207 11.019,-4.48 11.213,-4.752C11.391,-5.001 11.569,-5.251 11.735,-5.508C12.644,-6.914 13.19,-8.619 12.923,-10.272C12.689,-11.731 11.858,-13.014 11.046,-14.249C10.404,-15.225 9.763,-16.201 9.121,-17.177C8.882,-17.54 8.638,-17.91 8.297,-18.18C7.997,-18.418 7.636,-18.567 7.27,-18.681C6.013,-19.07 4.669,-19.062 3.354,-18.992C2.136,-18.927 0.787,-18.746 0,-17.814" style="fill:rgb(98,63,233);fill-rule:nonzero;"/>
            </g>
            <g transform="matrix(1,0,0,1,380.496,149.029)">
                <path d="M0,21.141L-6.337,20.251C-7.479,20.065 -8.537,19.537 -9.373,18.737L-20.026,8.638L-21.282,7.822L-24.913,6.366L-26.903,4.822C-27.474,4.292 -27.131,3.869 -26.587,3.926L-25.034,5.2L-24.308,5.503L-23.884,5.261L-26.365,2.78C-26.354,2.586 -25.953,2.287 -25.76,2.295L-23.521,4.413L-23.017,3.95L-25.547,1.191C-25.881,0.722 -24.993,0.561 -24.178,1.312L-22.553,3.566L-22.069,3.385L-23.598,0.219C-23.463,0 -22.972,0.395 -22.748,0.522C-21.904,1 -20.677,3.506 -20.677,3.506L-19.83,3.748L-19.346,2.961L-19.527,1.932L-18.155,3.33L-18.331,5.511L-8.453,14.701L0.408,16.755L0,21.141Z" style="fill:white;fill-rule:nonzero;"/>
            </g>
            <g>
                <g opacity="0.149994">
                    <g transform="matrix(1,0,0,1,374.643,154.755)">
                        <clipPath id="_clip12">
                            <rect x="-21.345" y="-1.806" width="27.293" height="17.22" clip-rule="nonzero"/>
                        </clipPath>
                        <g clip-path="url(#_clip12)">
                            <path d="M0,13.556C-1.142,13.37 -2.2,12.842 -3.036,12.042L-13.689,1.943L-14.945,1.128L-18.397,-0.257L-18.455,-0.224L-19.181,-0.526L-20.734,-1.801C-21.278,-1.858 -21.622,-1.434 -21.05,-0.905L-19.06,0.64L-15.429,2.096L-14.173,2.911L-3.52,13.011C-2.685,13.811 -1.626,14.338 -0.484,14.524L5.853,15.414L5.948,14.392L0,13.556Z" style="fill:rgb(82,93,122);fill-rule:nonzero;"/>
                        </g>
                    </g>
                </g>
            </g>
            <g>
                <g opacity="0.149994">
                    <g>
                        <clipPath id="_clip13">
                            <rect x="382.977" y="148.201" width="7.843" height="19.891" clip-rule="nonzero"/>
                        </clipPath>
                        <g clip-path="url(#_clip13)">
                            <g transform="matrix(1,0,0,1,384.766,148.5)">
                                <path d="M0,1.074C0.489,0.323 1.328,-0.062 2.215,-0.299C1.432,-0.152 0.696,0.135 0.192,0.733C0.02,0.937 -0.077,1.153 -0.141,1.373C-0.099,1.273 -0.064,1.173 0,1.074" style="fill:rgb(82,93,122);fill-rule:nonzero;"/>
                            </g>
                            <g transform="matrix(1,0,0,1,386.124,154.767)">
                                <path d="M0,11.554C0.535,11.068 1.322,10.662 1.72,10.047C2.091,9.471 2.085,8.662 2.457,8.036C2.712,7.608 3.092,7.325 3.362,6.919C3.603,6.556 4.089,6.268 4.255,5.866C4.432,5.436 4.189,4.923 4.013,4.536C3.823,4.115 3.64,3.627 3.831,3.206C3.943,2.959 4.164,2.784 4.355,2.592C4.546,2.4 4.72,2.153 4.694,1.884C4.632,1.249 3.779,0.954 3.473,0.446C3.401,0.327 3.342,0.201 3.274,0.079C3.132,-0.178 2.887,-0.65 2.622,-0.798C2.398,-0.923 2.029,-0.941 1.777,-1.022C1.204,-1.207 0.651,-1.455 0.138,-1.771C0.545,-1.479 0.974,-1.219 1.428,-1.007C1.667,-0.895 2.031,-0.831 2.239,-0.68C2.483,-0.501 2.667,-0.002 2.777,0.271C2.829,0.4 2.872,0.533 2.928,0.66C3.169,1.202 3.979,1.601 3.962,2.238C3.955,2.508 3.751,2.732 3.538,2.899C3.325,3.066 3.083,3.212 2.941,3.443C2.7,3.837 2.821,4.344 2.958,4.785C3.084,5.191 3.261,5.73 3.032,6.135C2.818,6.513 2.301,6.739 2.016,7.069C1.698,7.439 1.285,7.672 0.979,8.066C0.533,8.641 0.438,9.444 -0.001,9.969C-0.472,10.531 -1.303,10.836 -1.895,11.252C-2.586,11.738 -3.216,12.483 -3.141,13.325C-2.47,13.092 -1.715,13.161 -0.991,13.162C-0.891,12.553 -0.472,11.983 0,11.554" style="fill:rgb(82,93,122);fill-rule:nonzero;"/>
                            </g>
                        </g>
                    </g>
                </g>
            </g>
            <g>
                <g opacity="0.199997">
                    <g transform="matrix(1,0,0,1,390.157,197.595)">
                        <clipPath id="_clip14">
                            <rect x="-11.882" y="-8.256" width="13.314" height="6.563" clip-rule="nonzero"/>
                        </clipPath>
                        <g clip-path="url(#_clip14)">
                            <path d="M0,-8.089L-0.15,-8.255L-11.881,-7.905L-11.36,-4.876C-6.931,-5.964 -2.048,0.166 1.409,-2.269C1.474,-3.395 1.408,-4.528 1.203,-5.646C1.036,-6.556 0.619,-7.402 0,-8.089" style="fill:rgb(82,93,122);fill-rule:nonzero;"/>
                        </g>
                    </g>
                </g>
            </g>
            <g transform="matrix(1,0,0,1,391.029,194.692)">
                <path d="M0,-31.732C0,-31.732 3.706,-30.357 3.888,-27.029L-0.566,-12.022L0.687,-3.461C-3.212,0 -9.002,-5.809 -13.964,-2.118L-9.183,-21.159C-10.037,-22.382 -10.286,-23.929 -9.858,-25.358L-9.719,-25.822L-4.846,-29.75L0,-31.732Z" style="fill:rgb(86,64,139);fill-rule:nonzero;"/>
            </g>
            <g>
                <g opacity="0.199997">
                    <g transform="matrix(1,0,0,1,382.405,192.574)">
                        <path d="M0,-19.745L-0.892,-19.591C-0.794,-19.402 -0.683,-19.218 -0.559,-19.041L-5.34,0C-4.965,-0.279 -4.585,-0.498 -4.202,-0.676L0.409,-19.041C0.252,-19.266 0.116,-19.501 0,-19.745" style="fill:rgb(43,32,70);fill-rule:nonzero;"/>
                    </g>
                    <g transform="matrix(1,0,0,1,381.592,192.386)">
                        <path d="M0,-1.078C2.552,-0.943 5.11,0.14 7.356,-0.022C5.062,-0.167 2.508,-1.218 0,-1.078" style="fill:rgb(43,32,70);fill-rule:nonzero;"/>
                    </g>
                </g>
            </g>
            <g>
                <g opacity="0.199997">
                    <g transform="matrix(1,0,0,1,390.007,172.984)">
                        <clipPath id="_clip15">
                            <rect x="-9.04" y="-7.036" width="9.04" height="7.036" clip-rule="nonzero"/>
                        </clipPath>
                        <g clip-path="url(#_clip15)">
                            <path d="M0,-7.036L-5.353,-6.81L-8.697,-4.114L-8.836,-3.65C-9.202,-2.427 -9.069,-1.119 -8.488,0L-1.119,-1.331L0,-7.036Z" style="fill:rgb(43,32,70);fill-rule:nonzero;"/>
                        </g>
                    </g>
                </g>
            </g>
            <g transform="matrix(-0.999109,0.0421942,0.0421942,0.999109,381.092,171.724)">
                <path d="M-9.191,-6.362L-0.114,-6.362L0.559,-0.952L-9.37,0.207L-9.191,-6.362Z" style="fill:rgb(86,64,139);fill-rule:nonzero;"/>
            </g>
            <g transform="matrix(1,0,0,1,397.992,167.733)">
                <path d="M0,-9.303C-0.007,-9.983 -0.036,-10.725 -0.48,-11.241C-0.684,-11.477 -0.957,-11.641 -1.225,-11.801C-1.457,-11.94 -1.691,-12.079 -1.944,-12.175C-3.078,-12.607 -4.349,-12.11 -5.394,-11.493C-6.037,-11.113 -6.655,-10.666 -7.16,-10.112C-7.406,-9.842 -7.627,-9.548 -7.798,-9.226C-8.021,-8.808 -8.027,-8.671 -7.909,-8.249C-7.585,-7.091 -7.448,-5.874 -6.963,-4.773C-6.479,-3.672 -5.529,-2.663 -4.33,-2.57C-4.931,-0.494 -4.266,1.443 -3.936,3.304C-3.549,2.87 -3.224,2.221 -2.978,1.8C-2.515,1.005 -2.052,0.211 -1.607,-0.594C-1.056,-1.591 -0.531,-2.611 -0.202,-3.702C0.343,-5.512 0.019,-7.441 0,-9.303" style="fill:rgb(98,63,233);fill-rule:nonzero;"/>
            </g>
            <g transform="matrix(1,0,0,1,397.992,155.638)">
                <path d="M0,2.792C-0.003,2.523 -0.017,2.246 -0.051,1.976C-0.052,1.696 -0.066,1.416 -0.111,1.137C-0.345,-0.322 -1.177,-1.605 -1.988,-2.84C-2.63,-3.816 -3.272,-4.792 -3.913,-5.768C-4.152,-6.131 -4.397,-6.501 -4.737,-6.771C-5.037,-7.009 -5.398,-7.158 -5.764,-7.272C-7.021,-7.661 -8.365,-7.653 -9.68,-7.583C-10.898,-7.518 -12.247,-7.338 -13.034,-6.405C-13.247,-6.152 -13.36,-5.882 -13.412,-5.608C-12.618,-6.336 -11.417,-6.51 -10.317,-6.584C-9.003,-6.672 -7.659,-6.698 -6.397,-6.325C-6.029,-6.217 -5.667,-6.072 -5.364,-5.838C-5.02,-5.572 -4.77,-5.206 -4.526,-4.846C-3.872,-3.878 -3.217,-2.911 -2.563,-1.944C-1.734,-0.72 -0.886,0.552 -0.632,2.007C-0.583,2.286 -0.566,2.565 -0.561,2.845C-0.524,3.116 -0.506,3.392 -0.499,3.661C-0.455,5.522 -0.106,7.447 -0.627,9.264C-0.743,9.67 -0.893,10.064 -1.055,10.453C-0.72,9.787 -0.417,9.106 -0.202,8.393C0.343,6.583 0.019,4.654 0,2.792" style="fill:rgb(129,101,237);fill-rule:nonzero;"/>
            </g>
            <g transform="matrix(1,0,0,1,0,198.474)">
                <rect x="237.878" y="83.045" width="4.536" height="4.936" style="fill:white;"/>
            </g>
            <g transform="matrix(0.847522,0.530761,0.530761,-0.847522,224.11,281.398)">
                <rect x="0.9" y="-1.411" width="4.01" height="4.544" style="fill:white;"/>
            </g>
            <g transform="matrix(1,0,0,1,236.41,280.34)">
                <path d="M0,10.317L-5.327,10.317L-15.196,4.654L-12.392,0L-11.887,0.448L-12.274,2.134L-7.906,4.654L-6.897,3.196L-6,3.644L-5.327,6.448L-3.448,8.018L-2.07,8.108C-0.906,8.183 0,9.15 0,10.317" style="fill:rgb(98,63,233);fill-rule:nonzero;"/>
            </g>
            <g transform="matrix(-0.509625,0.860397,0.860397,0.509625,237.34,282.488)">
                <path d="M-16.897,-11.288L4.758,-11.288L4.726,-6.748L-6.932,-4.72L-16.897,-11.288Z" style="fill:rgb(86,64,139);fill-rule:nonzero;"/>
            </g>
            <g transform="matrix(1,0,0,1,236.41,283.593)">
                <path d="M0,7.064L-5.327,7.064L-15.195,1.401L-14.352,0L-4.269,5.708C-3.936,4.351 -3.448,4.765 -3.448,4.765L-2.07,4.855C-0.906,4.93 0,5.897 0,7.064" style="fill:rgb(86,64,139);fill-rule:nonzero;"/>
            </g>
            <g>
                <g opacity="0.300003">
                    <g transform="matrix(0.50968,-0.860364,-0.860364,-0.50968,231.522,267.713)">
                        <clipPath id="_clip16">
                            <path d="M-5.388,-6.954L-4.341,-8.721L7.442,-1.74L6.395,0.026L-5.388,-6.954Z" clip-rule="nonzero"/>
                        </clipPath>
                        <g clip-path="url(#_clip16)">
                            <path d="M4.244,-1.249L7.149,-1.249L-2.815,-7.816L-5.114,-7.416L4.244,-1.249Z" style="fill:rgb(43,32,70);fill-rule:nonzero;"/>
                        </g>
                    </g>
                </g>
            </g>
            <g transform="matrix(1,0,0,1,249.543,280.957)">
                <path d="M0,-44.638L0,-42.466C0,-41.491 -0.128,-40.52 -0.38,-39.578L-6.239,-17.694C-6.239,-17.694 -6.096,-0.306 -6.596,2.407L-12.288,2.407L-13.33,-19.305L-12.822,-37.617C-14.36,-39.998 -15.184,-42.771 -15.196,-45.606L-15.202,-47.045L0,-47.045L0,-44.638Z" style="fill:rgb(86,64,139);fill-rule:nonzero;"/>
            </g>
            <g>
                <g opacity="0.300003">
                    <g transform="matrix(1,0,0,1,241.703,258.896)">
                        <path d="M0,4.367L5.859,-17.516C6.085,-18.36 6.211,-19.227 6.235,-20.1L7.836,-20.101C7.812,-19.228 7.686,-18.361 7.46,-17.516L1.601,4.367C1.601,4.367 1.744,21.755 1.244,24.468L-0.357,24.468C0.143,21.755 0,4.367 0,4.367" style="fill:rgb(43,32,70);fill-rule:nonzero;"/>
                    </g>
                </g>
            </g>
            <g transform="matrix(1,0,0,1,236.366,283.72)">
                <path d="M0,6.937L17.121,6.937L17.121,6.292C17.121,5.15 16.195,4.224 15.053,4.224L14.32,4.224L8.294,0L7.516,0L7.56,1.245L0.845,1.289L0.578,0L0,0L0,6.937Z" style="fill:rgb(98,63,233);fill-rule:nonzero;"/>
            </g>
            <g transform="matrix(1,0,0,1,253.487,288.589)">
                <path d="M0,1.423L0,2.068L-17.121,2.068L-17.121,0.823L-3.944,0.823C-4.063,-0.423 -2.802,-0.645 -2.802,-0.645L-2.068,-0.645C-0.926,-0.645 0,0.281 0,1.423" style="fill:rgb(86,64,139);fill-rule:nonzero;"/>
            </g>
            <g transform="matrix(1,0,0,1,260.069,215.797)">
                <path d="M0,0.249C-0.471,-0.479 -1.28,-0.918 -2.147,-0.918L-5.16,-0.918C-5.816,-0.918 -6.447,-0.667 -6.922,-0.215L-7.071,-0.073L-12.052,-0.073L-12.052,1.167L0,1.16L0,0.249Z" style="fill:white;fill-rule:nonzero;"/>
            </g>
            <g transform="matrix(1,0,0,1,234.342,192.596)">
                <path d="M0,3.977L4.836,7.779L8.963,2.529L6.766,-1.709C6.043,-3.103 4.444,-3.802 2.93,-3.386L2.43,0.009C2.281,1.018 1.835,1.96 1.149,2.715L0,3.977Z" style="fill:white;fill-rule:nonzero;"/>
            </g>
            <g transform="matrix(1,0,0,1,249.909,216.517)">
                <path d="M0,1.67L16.494,1.681C16.929,1.681 17.281,1.329 17.281,0.894L17.281,0.788C17.281,0.353 16.929,0 16.494,0L0.002,-0.011C-0.433,-0.011 -0.786,0.341 -0.786,0.776L-0.786,0.882C-0.787,1.317 -0.435,1.67 0,1.67" style="fill:rgb(245,247,249);fill-rule:nonzero;"/>
            </g>
            <g transform="matrix(1,0,0,1,249.123,217.704)">
                <path d="M0,-0.416C0,-0.607 0.077,-0.775 0.19,-0.91C0.192,-0.48 0.54,-0.132 0.971,-0.132L17.474,-0.121C17.715,-0.121 17.923,-0.237 18.067,-0.408L18.067,-0.288C18.067,0.144 17.717,0.494 17.285,0.494L0.782,0.483C0.35,0.483 0,0.132 0,-0.3L0,-0.416Z" style="fill:rgb(223,226,236);fill-rule:nonzero;"/>
            </g>
            <g transform="matrix(1,0,0,1,266.497,201.844)">
                <path d="M0,14.481L0.028,14.497C0.141,14.56 0.285,14.52 0.349,14.406L8.258,0.322C8.321,0.209 8.281,0.065 8.167,0.001L8.14,-0.015C8.026,-0.079 7.882,-0.039 7.818,0.075L-0.09,14.159C-0.154,14.273 -0.114,14.417 0,14.481" style="fill:rgb(223,226,236);fill-rule:nonzero;"/>
            </g>
            <g transform="matrix(1,0.00064683,0.00064683,-1,254.629,217.55)">
                <rect x="0" y="0" width="1.546" height="0.593" style="fill:rgb(25,28,60);"/>
            </g>
            <g transform="matrix(1,0.00064683,0.00064683,-1,252.797,217.549)">
                <rect x="0" y="0" width="1.546" height="0.593" style="fill:rgb(25,28,60);"/>
            </g>
            <g transform="matrix(1,0.00064683,0.00064683,-1,262.602,217.556)">
                <rect x="0" y="0" width="1.546" height="0.593" style="fill:rgb(25,28,60);"/>
            </g>
            <g>
                <g opacity="0.149994">
                    <g transform="matrix(1,0,0,1,239.039,195.519)">
                        <clipPath id="_clip17">
                            <rect x="-0.016" y="-6.277" width="4.281" height="7.331" clip-rule="nonzero"/>
                        </clipPath>
                        <g clip-path="url(#_clip17)">
                            <path d="M0,-5.224L0.073,-6.277C0.91,-6.023 1.643,-5.453 2.068,-4.632L4.265,-0.394L3.128,1.053L2.043,0.025C0.613,-1.332 -0.136,-3.257 0,-5.224" style="fill:rgb(82,93,122);fill-rule:nonzero;"/>
                        </g>
                    </g>
                </g>
            </g>
            <g transform="matrix(1,0,0,1,249.752,191.621)">
                <path d="M0,-5.474L0,-2.18L-1.156,-1.513L-1.237,1.689L-2.268,1.244L-3.591,3.32C-4.275,4.394 -5.718,4.679 -6.76,3.947L-8.437,2.768C-10.05,1.634 -11.072,-0.161 -11.225,-2.127L-11.563,-6.494L-10.938,-7.015C-8.266,-9.245 -4.732,-10.153 -1.317,-9.485L-0.801,-9.384L-0.272,-7.476C-0.092,-6.824 0,-6.151 0,-5.474" style="fill:white;fill-rule:nonzero;"/>
            </g>
            <g>
                <g opacity="0.149994">
                    <g transform="matrix(1,0,0,1,238.189,186.517)">
                        <clipPath id="_clip18">
                            <rect x="0" y="-4.596" width="11.563" height="8.098" clip-rule="nonzero"/>
                        </clipPath>
                        <g clip-path="url(#_clip18)">
                            <path d="M0,-1.39L0.625,-1.911C3.296,-4.142 6.831,-5.049 10.246,-4.382L10.762,-4.281L11.29,-2.373C11.471,-1.721 11.563,-1.047 11.563,-0.37L11.563,-0.095C11.28,-0.15 11.003,-0.234 10.752,-0.374C10.452,-0.541 10.458,-0.621 10.172,-0.453C9.986,-0.344 9.834,-0.172 9.641,-0.064C8.872,0.365 7.888,0.429 7.093,0.033C7.021,-0.003 6.942,-0.043 6.865,-0.021C6.784,0.002 6.739,0.085 6.703,0.161C5.737,2.168 4.766,1.986 4.814,1.442C4.863,0.897 4.762,0.305 4.382,-0.088C3.93,-0.555 3.137,-0.841 2.557,-0.547C1.977,-0.253 1.448,0.025 1.29,0.655C1.131,1.286 0.907,2.508 1.033,3.146C1.13,3.634 0.391,3.659 0.338,2.977L0,-1.39Z" style="fill:rgb(82,93,122);fill-rule:nonzero;"/>
                        </g>
                    </g>
                </g>
            </g>
            <g transform="matrix(1,0,0,1,237.402,181.903)">
                <path d="M0,5.325C0.021,4.562 0.007,3.797 0.098,3.04C0.285,1.478 0.916,-0.398 1.962,-1.604C2.413,-2.125 3.06,-2.519 3.748,-2.501C4.085,-2.492 4.468,-2.319 4.803,-2.421C5.099,-2.51 5.271,-2.812 5.492,-3.004C5.816,-3.286 6.268,-3.401 6.685,-3.446C8.343,-3.624 10.065,-3.096 11.337,-2.019C11.755,-1.666 12.123,-1.259 12.516,-0.877C13.515,0.096 14.598,1.186 16.104,0.719C16.151,0.704 16.215,0.694 16.239,0.737C16.248,0.752 16.248,0.771 16.248,0.788C16.249,1.432 15.869,2.031 15.366,2.432C14.863,2.834 14.248,3.065 13.634,3.259C13.233,3.385 12.823,3.498 12.403,3.513C11.918,3.53 11.429,3.409 11.005,3.173C10.705,3.006 10.711,2.925 10.425,3.094C10.239,3.203 10.088,3.375 9.894,3.483C9.126,3.912 8.141,3.976 7.346,3.58C7.275,3.544 7.195,3.504 7.118,3.526C7.038,3.549 6.991,3.632 6.956,3.708C6.555,4.571 6.475,5.549 6.148,6.443C6.116,6.53 6.077,6.623 5.997,6.67C5.919,6.716 5.823,6.708 5.733,6.699C5.404,6.664 5.074,6.63 4.745,6.595C4.842,6.057 5.019,5.533 5.067,4.989C5.116,4.444 5.016,3.852 4.635,3.459C4.183,2.992 3.409,2.928 2.83,3.221C2.25,3.515 1.86,4.109 1.702,4.739C1.544,5.369 1.594,6.035 1.72,6.673C1.817,7.161 1.942,7.721 1.636,8.113C1.462,8.336 1.185,8.448 0.919,8.544C0.499,8.695 0.073,8.83 -0.357,8.949C-0.152,7.752 -0.033,6.539 0,5.325" style="fill:rgb(65,48,104);fill-rule:nonzero;"/>
            </g>
            <g transform="matrix(1,0,0,1,249.918,187.037)">
                <path d="M0,-4.944C-0.392,-5.326 -0.761,-5.733 -1.178,-6.086C-2.451,-7.163 -4.173,-7.692 -5.83,-7.513C-6.247,-7.468 -6.7,-7.353 -7.024,-7.071C-7.245,-6.879 -7.417,-6.577 -7.713,-6.488C-8.048,-6.386 -8.431,-6.559 -8.768,-6.568C-9.456,-6.586 -10.103,-6.192 -10.554,-5.671C-11.599,-4.465 -12.23,-2.589 -12.418,-1.028C-12.509,-0.27 -12.495,0.495 -12.516,1.258C-12.538,2.097 -12.617,2.934 -12.723,3.767C-12.773,3.781 -12.822,3.801 -12.873,3.815C-12.668,2.617 -12.548,1.405 -12.516,0.191C-12.495,-0.572 -12.509,-1.337 -12.418,-2.095C-12.23,-3.656 -11.599,-5.532 -10.554,-6.739C-10.103,-7.259 -9.456,-7.653 -8.768,-7.635C-8.431,-7.627 -8.048,-7.454 -7.713,-7.555C-7.417,-7.645 -7.245,-7.946 -7.024,-8.139C-6.7,-8.42 -6.247,-8.536 -5.83,-8.581C-4.173,-8.759 -2.451,-8.231 -1.178,-7.154C-0.761,-6.8 -0.392,-6.393 0,-6.011C0.999,-5.039 2.083,-3.948 3.589,-4.416C3.636,-4.43 3.7,-4.44 3.724,-4.397C3.732,-4.382 3.733,-4.364 3.733,-4.346C3.733,-3.974 3.598,-3.623 3.394,-3.311C1.991,-2.994 0.955,-4.015 0,-4.944" style="fill:rgb(65,48,104);fill-rule:nonzero;"/>
            </g>
            <g transform="matrix(1,0,0,1,239.043,189.787)">
                <path d="M0,-1.715C0.02,-1.546 0.047,-1.377 0.08,-1.211C0.159,-0.81 0.244,-0.365 0.107,0C0.098,-0.048 0.089,-0.097 0.08,-0.144C-0.022,-0.66 -0.068,-1.195 0,-1.715" style="fill:rgb(65,48,104);fill-rule:nonzero;"/>
            </g>
            <g transform="matrix(1,0,0,1,242.47,187.736)">
                <path d="M0,0.223C-0.017,0.413 -0.06,0.599 -0.1,0.786C-0.174,0.778 -0.248,0.77 -0.322,0.763C-0.242,0.318 -0.121,-0.119 -0.05,-0.563C0.009,-0.308 0.023,-0.037 0,0.223" style="fill:rgb(65,48,104);fill-rule:nonzero;"/>
            </g>
            <g transform="matrix(1,0,0,1,242.992,193.02)">
                <path d="M0,2.548L-0.079,2.492C0.009,2.319 0.11,2.15 0.212,1.986C0.553,1.439 0.895,0.891 1.237,0.343C1.499,-0.078 1.808,-0.534 2.289,-0.656C2.588,-0.732 2.904,-0.662 3.197,-0.565C3.616,-0.426 4.013,-0.224 4.381,0.019L3.169,1.921C2.484,2.995 1.042,3.28 0,2.548" style="fill:rgb(65,48,104);fill-rule:nonzero;"/>
            </g>
            <g transform="matrix(1,0,0,1,243.97,193.75)">
                <path d="M0,2.132C0.062,2.01 0.133,1.891 0.205,1.775C0.446,1.389 0.687,1.003 0.928,0.617C1.113,0.32 1.33,-0.002 1.669,-0.087C1.88,-0.141 2.103,-0.092 2.31,-0.023C2.487,0.036 2.656,0.114 2.821,0.202L2.19,1.191C1.727,1.918 0.917,2.273 0.118,2.206C0.098,2.193 0.076,2.185 0.056,2.171L0,2.132Z" style="fill:rgb(246,246,246);fill-rule:nonzero;"/>
            </g>
            <g>
                <g opacity="0.300003">
                    <g transform="matrix(1,0,0,1,234.342,239.325)">
                        <clipPath id="_clip19">
                            <rect x="-0.004" y="-5.413" width="15.205" height="4.884" clip-rule="nonzero"/>
                        </clipPath>
                        <g clip-path="url(#_clip19)">
                            <path d="M0,-5.413L15.202,-5.413L15.202,-0.834C15.202,-0.754 15.188,-0.675 15.186,-0.594C10.748,0 4.386,-3.705 0.031,-3.181C-0.029,-3.712 0.008,-3.435 0.006,-3.973L0,-5.413Z" style="fill:rgb(43,32,70);fill-rule:nonzero;"/>
                        </g>
                    </g>
                </g>
            </g>
            <g transform="matrix(1,0,0,1,234.585,238.922)">
                <path d="M0,-42.616L-1.606,-40.262C-2.184,-39.414 -2.517,-38.285 -2.889,-37.34C-3.51,-35.759 -3.853,-34.099 -3.978,-32.575L-3.978,-29.987C-3.978,-29.007 -3.873,-28.03 -3.663,-27.073L-1.945,-19.216C-1.392,-16.686 -1.275,-14.081 -1.597,-11.512L-2.711,-3.19C1.959,-6.566 12.182,0 17.252,-3.084L14.449,-18.066C14.394,-19.604 14.249,-21.137 14.016,-22.658L13.305,-27.287C12.588,-31.965 10.549,-36.34 7.43,-39.899L6.495,-40.966L0,-42.616Z" style="fill:rgb(98,63,233);fill-rule:nonzero;"/>
            </g>
            <g>
                <g opacity="0.149994">
                    <g transform="matrix(1,0,0,1,231.696,230.456)">
                        <path d="M0,-28.874C0.371,-29.819 0.705,-30.948 1.283,-31.795L2.889,-34.15L3.798,-33.919L2.35,-31.795C1.772,-30.948 1.439,-29.819 1.067,-28.874C0.446,-27.293 0.103,-25.632 -0.022,-24.109L-0.022,-21.52C-0.022,-20.541 0.083,-19.564 0.292,-18.607L2.01,-10.749C2.564,-8.22 2.682,-5.615 2.359,-3.046L1.323,4.692C0.916,4.842 0.527,5.023 0.178,5.276L1.292,-3.046C1.614,-5.615 1.496,-8.22 0.943,-10.749L-0.775,-18.607C-0.984,-19.564 -1.09,-20.541 -1.09,-21.52L-1.09,-24.109C-0.964,-25.632 -0.621,-27.293 0,-28.874" style="fill:rgb(49,32,117);fill-rule:nonzero;"/>
                    </g>
                </g>
            </g>
            <g transform="matrix(1,0,0,1,240.15,221.535)">
                <path d="M0,-16.27L3.743,-2.607L17.673,-2.254L18.073,0.161L3.391,2.325C1.423,2.615 -0.497,1.56 -1.307,-0.258L-7.289,-13.682C-8.03,-15.346 -7.167,-17.286 -5.434,-17.849L-3.898,-18.348C-2.245,-18.885 -0.476,-17.942 0,-16.27" style="fill:rgb(98,63,233);fill-rule:nonzero;"/>
            </g>
            <g>
                <g opacity="0.149994">
                    <g transform="matrix(1,0,0,1,234.128,221.189)">
                        <clipPath id="_clip20">
                            <rect x="-1.65" y="-14.351" width="25.745" height="17.07" clip-rule="nonzero"/>
                        </clipPath>
                        <g clip-path="url(#_clip20)">
                            <path d="M0,-12.759L5.249,-0.979C6.059,0.838 7.979,1.894 9.947,1.604L23.936,-0.458L24.096,0.507L9.414,2.671C7.445,2.961 5.525,1.906 4.715,0.088L-1.266,-13.336C-2.52,-15.72 -0.329,-13.214 0,-12.759" style="fill:rgb(49,32,117);fill-rule:nonzero;"/>
                        </g>
                    </g>
                </g>
            </g>
            <g transform="matrix(1,0,0,1,258.223,216.046)">
                <path d="M0,5.37L5.87,4.336L8.505,3.402L9.586,1.893C9.959,1.373 9.893,0.657 9.43,0.215L9.206,0L6.871,2.335L0.467,2.268L-0.344,3.576L0,5.37Z" style="fill:white;fill-rule:nonzero;"/>
            </g>
            <g>
                <g opacity="0.149994">
                    <g transform="matrix(1,0,0,1,258.223,217.271)">
                        <path d="M0,3.414L5.87,2.38L6.167,2.275C7.673,1.741 8.929,0.671 9.695,-0.73L9.694,0.279L8.501,1.956L5.87,3.111L0,4.144L-0.344,2.351L-0.237,2.178L0,3.414Z" style="fill:rgb(82,93,122);fill-rule:nonzero;"/>
                    </g>
                </g>
            </g>
        </g>
    </g>
    <defs>
        <linearGradient id="_Linear1" x1="0" y1="0" x2="1" y2="0" gradientUnits="userSpaceOnUse" gradientTransform="matrix(314,0,0,169,171,213.5)"><stop offset="0" style="stop-color:rgb(0,239,255);stop-opacity:1"/><stop offset="1" style="stop-color:rgb(195,32,255);stop-opacity:1"/></linearGradient>
        <linearGradient id="_Linear2" x1="0" y1="0" x2="1" y2="0" gradientUnits="userSpaceOnUse" gradientTransform="matrix(1,-6.93889e-18,-6.93889e-18,-1,0,-0.00423153)"><stop offset="0" style="stop-color:rgb(98,63,233);stop-opacity:1"/><stop offset="1" style="stop-color:rgb(93,218,244);stop-opacity:1"/></linearGradient>
        <linearGradient id="_Linear3" x1="0" y1="0" x2="1" y2="0" gradientUnits="userSpaceOnUse" gradientTransform="matrix(1,3.46945e-18,3.46945e-18,-1,8.88178e-16,-0.00386227)"><stop offset="0" style="stop-color:rgb(86,64,139);stop-opacity:1"/><stop offset="1" style="stop-color:rgb(215,126,219);stop-opacity:1"/></linearGradient>
        <linearGradient id="_Linear4" x1="0" y1="0" x2="1" y2="0" gradientUnits="userSpaceOnUse" gradientTransform="matrix(1,3.46945e-18,3.46945e-18,-1,0,-0.00388222)"><stop offset="0" style="stop-color:rgb(86,64,139);stop-opacity:1"/><stop offset="1" style="stop-color:rgb(215,126,219);stop-opacity:1"/></linearGradient>
        <linearGradient id="_Linear5" x1="0" y1="0" x2="1" y2="0" gradientUnits="userSpaceOnUse" gradientTransform="matrix(1,0,0,-1,-2.22045e-16,-0.00864006)"><stop offset="0" style="stop-color:rgb(98,63,233);stop-opacity:1"/><stop offset="1" style="stop-color:rgb(215,126,219);stop-opacity:1"/></linearGradient>
    </defs>
</svg>
