<?xml version="1.0" encoding="UTF-8" standalone="no"?>
<!DOCTYPE svg PUBLIC "-//W3C//DTD SVG 1.1//EN" "http://www.w3.org/Graphics/SVG/1.1/DTD/svg11.dtd">
<svg width="100%" height="100%" viewBox="0 0 72 72" version="1.1" xmlns="http://www.w3.org/2000/svg" xmlns:xlink="http://www.w3.org/1999/xlink" xml:space="preserve" xmlns:serif="http://www.serif.com/" style="fill-rule:evenodd;clip-rule:evenodd;stroke-linejoin:round;stroke-miterlimit:1.41421;">
    <g id="Instagram">
        <path id="Rounded" d="M8,72L64,72C68.418,72 72,68.418 72,64L72,8C72,3.582 68.418,0 64,0L8,0C3.582,0 0,3.582 0,8L0,64C0,68.418 3.582,72 8,72Z" style="fill:rgb(225,48,108);"/>
        <path d="M36,12C42.518,12 43.335,12.028 45.895,12.144C48.45,12.261 50.194,12.667 51.721,13.26C53.299,13.873 54.638,14.694 55.972,16.028C57.306,17.362 58.127,18.701 58.74,20.279C59.333,21.806 59.739,23.55 59.856,26.105C59.972,28.665 60,29.482 60,36C60,42.518 59.972,43.335 59.856,45.895C59.739,48.45 59.333,50.194 58.74,51.721C58.127,53.299 57.306,54.638 55.972,55.972C54.638,57.306 53.299,58.127 51.721,58.74C50.194,59.333 48.45,59.739 45.895,59.856C43.335,59.972 42.518,60 36,60C29.482,60 28.665,59.972 26.105,59.856C23.55,59.739 21.806,59.333 20.279,58.74C18.701,58.127 17.362,57.306 16.028,55.972C14.694,54.638 13.873,53.299 13.26,51.721C12.667,50.194 12.261,48.45 12.144,45.895C12.028,43.335 12,42.518 12,36C12,29.482 12.028,28.665 12.144,26.105C12.261,23.55 12.667,21.806 13.26,20.279C13.873,18.701 14.694,17.362 16.028,16.028C17.362,14.694 18.701,13.873 20.279,13.26C21.806,12.667 23.55,12.261 26.105,12.144C28.665,12.028 29.482,12 36,12ZM36,16.324C29.592,16.324 28.833,16.349 26.302,16.464C23.962,16.571 22.691,16.962 21.845,17.291C20.725,17.726 19.926,18.246 19.086,19.086C18.246,19.926 17.726,20.725 17.291,21.845C16.962,22.691 16.571,23.962 16.464,26.302C16.349,28.833 16.324,29.592 16.324,36C16.324,42.408 16.349,43.167 16.464,45.698C16.571,48.038 16.962,49.309 17.291,50.155C17.726,51.275 18.246,52.074 19.086,52.914C19.926,53.754 20.725,54.274 21.845,54.709C22.691,55.038 23.962,55.429 26.302,55.536C28.832,55.651 29.591,55.676 36,55.676C42.409,55.676 43.168,55.651 45.698,55.536C48.038,55.429 49.309,55.038 50.155,54.709C51.275,54.274 52.074,53.754 52.914,52.914C53.754,52.074 54.274,51.275 54.709,50.155C55.038,49.309 55.429,48.038 55.536,45.698C55.651,43.167 55.676,42.408 55.676,36C55.676,29.592 55.651,28.833 55.536,26.302C55.429,23.962 55.038,22.691 54.709,21.845C54.274,20.725 53.754,19.926 52.914,19.086C52.074,18.246 51.275,17.726 50.155,17.291C49.309,16.962 48.038,16.571 45.698,16.464C43.167,16.349 42.408,16.324 36,16.324ZM36,23.676C42.807,23.676 48.324,29.193 48.324,36C48.324,42.807 42.807,48.324 36,48.324C29.193,48.324 23.676,42.807 23.676,36C23.676,29.193 29.193,23.676 36,23.676ZM36,44C40.418,44 44,40.418 44,36C44,31.582 40.418,28 36,28C31.582,28 28,31.582 28,36C28,40.418 31.582,44 36,44ZM51.691,23.189C51.691,24.779 50.402,26.069 48.811,26.069C47.221,26.069 45.931,24.779 45.931,23.189C45.931,21.598 47.221,20.309 48.811,20.309C50.402,20.309 51.691,21.598 51.691,23.189Z" style="fill:white;"/>
    </g>
</svg>
